/* XPM */
static char *result[] = {
/* columns rows colors chars-per-pixel */
"64 64 112 2 ",
"   c #B65029",
".  c #BC542C",
"X  c #AF5531",
"o  c #A75739",
"O  c #A7583A",
"+  c #AA593B",
"@  c #B35633",
"#  c #B55834",
"$  c #BF5931",
"%  c #B75B38",
"&  c #B95C39",
"*  c #BF623F",
"=  c #C0562D",
"-  c #C2582E",
";  c #C45D35",
":  c #C85F36",
">  c #C65F38",
",  c #C96037",
"<  c #C66039",
"1  c #C96139",
"2  c #A35C41",
"3  c #AE5E40",
"4  c #9F6853",
"5  c #A66147",
"6  c #AA6247",
"7  c #A5664E",
"8  c #AB6449",
"9  c #AF684D",
"0  c #B76546",
"q  c #BB6443",
"w  c #B0674B",
"e  c #B2694E",
"r  c #BD6949",
"t  c #A06752",
"y  c #A36F5C",
"u  c #B36B50",
"i  c #A5715E",
"p  c #A9735F",
"a  c #BB7257",
"s  c #B3725A",
"d  c #BE775C",
"f  c #B8785F",
"g  c #A57563",
"h  c #AA7764",
"j  c #A67867",
"k  c #A97967",
"l  c #A37A6B",
"z  c #AB7B69",
"x  c #B47B66",
"c  c #BC7B62",
"v  c #B17F6C",
"b  c #C26642",
"n  c #C56845",
"m  c #C96B47",
"M  c #CC6E4A",
"N  c #CE714D",
"B  c #D0724D",
"V  c #C57455",
"C  c #CF7350",
"Z  c #C97758",
"A  c #C1795E",
"S  c #CC795A",
"D  c #D27551",
"F  c #D17E5E",
"G  c #C57D62",
"H  c #C87F63",
"J  c #B4816D",
"K  c #A58174",
"L  c #A98477",
"P  c #A6857A",
"I  c #AB8679",
"U  c #A7887E",
"Y  c #AE897C",
"T  c #B38574",
"R  c #B88775",
"E  c #B48877",
"W  c #BA8977",
"Q  c #B38C7E",
"!  c #BD8C7A",
"~  c #CB8266",
"^  c #CE866A",
"/  c #D38161",
"(  c #D1876A",
")  c #D1896D",
"_  c #CE8C73",
"`  c #C18E7C",
"'  c #D48C71",
"]  c #D88D71",
"[  c #C3917E",
"{  c #C9937F",
"}  c #AC8D82",
"|  c #B48E80",
" . c #AD9085",
".. c #AF968D",
"X. c #B69183",
"o. c #B99385",
"O. c #B4968C",
"+. c #BB9689",
"@. c #B5988E",
"#. c #BC998D",
"$. c #B69B92",
"%. c #BD9E92",
"&. c #C59482",
"*. c #C99684",
"=. c #C59887",
"-. c #CC9986",
";. c #C29B8D",
":. c #CD9C8A",
">. c #D09A86",
",. c #D29D89",
"<. c #C09E92",
"1. c #C0A095",
/* pixels */
":.-.,.-.,.,.>.>.-.! $.-.-.-.>.>.>.>.-.{ Q 1.>.,.-.>.,.,.-.>.[ O.;.-.-.>.>.>.>.-.-.W $.>.>.>.>.,.,.>.>.-.| %.*.-.-.>.>.>.-.-.` | ",
"/ < < < > : > > > % | M > > ; > < 1 ; = e &.1 1 < 1 > , > < ; z ~ ; > : > ; : ; ; & X.B > > > ; > > ; ; 9 &.1 > > > > 1 : > $ h ",
"Z . . . . . . . . @ Q n . . . . . . . . w ` .   . .   . . . . k H . = . . . =   . # Q n   . . . . . . . 8 ! ; =   . . . . .   p ",
"Z . . . . . - . = @ Q b = . . . = . . . 8 ` ; . . . . = = =   k H . =   . . = = . # Q b . = . . . = . = 8 ! $ = . . . . . = . i ",
"a @ # @ # @ # @ # + Y q @ @ @ @ @ @ # @ 7 W @ @ @ # X # # @ @ l c @ @ @ @ # @ # # + I 0 @ # @ @ @ # @ @ 7 E # # @ @ @ # # # @ g ",
"#.| Q Q L U | X.X.o.1.+.Q X.Y P | Q X.Q @.%.X.Q Q L U | X.X.X.;.#.X.X.Q L } Q | Q X.<.+.Q Q I P } ! X.| +.1.o.X.Q Y U Q | | Q O.",
"M N M b s =.D D C D D D B N n T ) B M M N M N M n 0 o.F D D D D D D B m s &.B N M N M M N m q T _ B D D D D D D N r o.F B M N B ",
"  . .   8 [ ; . . . . . . . . z A = . . . . . . . @ Q M .   . . . . . . w ! ; .   . = . . .   z ~ . . . = . .   . @ E n =   . . ",
". . . . 8 &.$ . . . . . . .   z A = . . . . . . . @ Q m . . . . . $ .   6 ! . . . . $ . . . . z ~ . . . . . . . . @ Y < .   . . ",
". . . . 5 ! $ . .   . . . .   j d . . .   . . . . @ Y n   . . . . . .   6 R . . . . . . . .   j G . .   . . . .   X Y * . . .   ",
"k k k k P O.z z k g g j k j j  .Q k k h g g z z z z O.E j k k g g k z k L O.z z k j g j z z z  .X.z z k j j k k k z ..T z j z g ",
"*.^ ) ) ) ) ) ) ^ c O._ ^ ^ ^ ( ^ ( ^ ~ J ;.) ^ ^ _ ) ) ^ ^ A Q { ^ ^ ( ^ ( ) ^ ~ c $._ ^ ) ) ) ) ^ ^ ~ J #.^ ^ ^ ^ ^ ( ^ ^ A Y ",
"F = = . = = . = . @ Q m . = = = = = . . w [ ; . . . . - . . . z ~ . = = = . = . . @ | m . = = . = = . = 8 ! ; = = = = = . . . h ",
"Z . . . . . = . . @ Q n = . . . . = . . w ! = . . . . . = . . k H . = . . . = . . @ Q b . . . . . . . . 8 ! ; . . . . . . . . i ",
"V . . . .   = . = @ Q b . . .   = . . . 8 ! . = . . . . . . . k G . =   . . . = = @ E b . . .   . = . . 8 ! . . . . . . . . . i ",
"x 8 8 6 6 3 w 8 8 7 } s 8 6 8 8 8 8 8 8 i Q 9 8 8 8 5 9 8 8 8 K J 6 6 6 8 8 8 8 8 7 } s 8 8 8 3 6 w 8 8 i X.9 8 6 6 8 8 8 8 8 l ",
"-.&.[ W Y #.=.-.=.-.:.:.-.&.!  .#.&.[ *.*.-.&.&.! T ..=.=.&.-.:.:.*.*.` Q #.[ &.[ &.-.=.&.! W } #.*.*.*.-.,.:.-.&.Q ..o.&.[ &.-.",
"; > > . 9 [ 1 < < 1 1 1 < < . J ~ , ; ; ; ; ; > ; % X.N , < < < 1 < > ; e [ 1 > > > , ; < ;   J ^ , < < 1 1 < < ; % X.N , ; ; > ",
"  . . . 8 [ ; . . . . . . . . k A = . . . . . . . @ Q m . . . . . . . . 8 ! ; .   . . . . .   z ~ . .   . . . . . # Q n . . . . ",
". . . = 8 [ ; . . . . . . .   j A = . . . . . . . @ Q M . . . . . $ .   6 ! = . . . = . . . . j ~ . . . . = # . .   Y < = . . . ",
"# # @ @ 7 W % @ # @ # @ @ X X j f # @ # # # # @ @ O Y r   # # # # # @ @ 7 T # @ # # # @ @ # @ l G @ @ @ # # @ # @ + Y q @ # # @ ",
"| Q | X.O.%.X.| Q L U Q Q Q Q @.#.Q Q Q P U Q Q X.X.%.+.X.Q Y P } Q Q Q o.<.X.| Q L U | X.Q Q #.%.| Q Q L U Q Q Q Q %.o.Q Q Y K ",
") N N N N N N N N r o.F N N N N N B N n s =.D B N N N N N N b I _ M N N N M B M M r +.F N N N N B N N M s &.N N N N M B N M n z ",
"Z . . . . . . .   @ Q n . . . . . . . . w [ = . . . . . . . . k H . . . . . = .   # Q n   . . . . .   . 8 [ $ . .   . . . . . g ",
"Z . . . . . . $ . @ Q n . . . . . . = . 8 ! = . . . . . = . . z G . . . . . . . . @ Q n . . . . . = . . 8 ! $ ; . . . . . = . i ",
"V . .   .   = . . @ Q q . . . . . . . . 8 R . . . . . . . . . j A . . . . . . . . @ Y * . . . . . . . . 8 W . .   . . . . .   i ",
"Q z z k g g z z z z O.T z z g g h k k k L @.z z k g g j z z z  .| k z k g k z z z z O.T j k g g j z z k Y O.z z k j g k z z z } ",
"^ ^ ~ G J ;.) ) ' ' ] ' ) ^ ~ Q { ( ^ ^ ( ( ( ~ ~ c $._ ) ] ) ] ] ' ) ~ J #.^ ^ ^ ^ ( ^ ^ ~ d Q -.) ' ) ' ] ] ' ^ c O._ ^ ^ ^ ^ ",
". . = . 8 ` ; = . $ = $ . . . z ~ = . . . = . = .   Q M . . . = = = . = 8 ` ; = . . = . . . . z ~ = = . = = . . . # Q m = . . = ",
". . . . 8 [ ; . . . . . . . . k A . . . . = . . . @ X.m . . . . . .   . 8 ` = . . . . . . . . k ~ . . . . . $ . . # Q q = . . . ",
". . . = 6 ` ; . . . . . . .   g A = . . . . . = . @ Y M . .   . - .   . 6 W = .   . = . . = . k ~   . . . . . . .   Q < =   . . ",
"8 8 8 8 y | 8 8 6 6 8 8 9 8 6 K J 8 8 8 6 6 6 8 8 7  .s 8 8 8 6 8 8 8 6 y | 8 8 8 6 3 8 8 8 8 K J 8 8 8 6 8 8 8 6 7 U s 8 8 8 5 ",
"=.&.&.&.-.-.*.&.&.R ..&.` &.&.&.*.&.[ ! Q O.&.&.[ &.:.*.&.[ !  .+.&.&.&.&.*.*.&.` R O.&.&.&.&.-.-.&.&.[ Y O.&.[ &.&.*.*.&.` W } ",
"/ > < > > > > > ; % | M > > > > > , ; ; u &.1 < < < < < < < $ z ~ > : 1 > ; : ; ; % o.N > > < > < < ; ; e [ 1 > > > > , > > ; h ",
"Z   . . .   = . . @ Q b = . . . . . . . 9 ! . . . . . . . . . j G . = . . . . . . # | b . . .   . . . . 7 ` ; .   . . . .     p ",
"Z . = . . . = . . @ Q b = . . . = . = . 8 ! ; . . . . . = . . j G . =   . . = . . # Q b . . . . . = . . 8 ! $ = . . . . = = . y ",
"a @ # @ # @ # @ # + Y 0 # @ @ @ # @ # @ 7 W @ # # # @ @ # # @ z c @ # @ @ # @ # @ + I 0 @ # @ @ # # # @ 7 W # @ @ @ @ # # # # g ",
"#.X.Q Q P } | X.| o.<.#.| | Y P Q | | | O.;.X.Q Q L U X.X.X.X.#.#.X.| Q L } | | | o.<.+.| Q I P | X.X.X.+.1.o.X.Q Y U Q X.Q | O.",
"m M M < s &.D D D D D D B B n T _ B M N M N N N n 0 o./ N C D D D D B m s &.D M M M B M M m q T _ D D D D D D B N r o.F B N M B ",
"  . . . 8 ` > =   . . . . . . z G = .   . .   . . @ Q n . . . . . . . . 8 ` ; .   . =   . .   z ~   .   . . . . . @ E b =   . . ",
"# . . . 8 [ ; . . . . - $ .   k A =   . . . . . . @ Q M . . . . . $ . . 8 ! ; . . . . . . $   z ~ . .   . $ . . . @ Y < .   . . ",
". . . . 6 ! ;     . . . .     j a . . . . . . . . X Y n   . . . . . .   2 R . . . . . . . . . g ~ . . . . . . .   X Y * . . .   ",
"k z z z L O.z k k g g k z j j } | z k z g j k z z z $.T j z j g j z k j L O.z z k j g j z z z } X.j z k g g k k k z ..T z j z g ",
"*.( ( ( ) ) ( ^ ^ c O._ ^ ^ ^ ( ( ( ~ H J <.^ ) ) ) ^ ) ^ ^ G Q { ~ ( ^ ^ ( ) ^ ~ c @._ ^ ) ) ) ) ^ ^ ~ J #.^ ^ ^ ^ ^ ( ^ ^ A Y ",
"F . = . = . ; . . @ Q m = = = . = - . . w ` ; = . = . = . . . z H = = = = . = . . # | m . = - . . . . = 8 ! ; = = = = = . . . h ",
"Z . . . . . . . . # Q b . . . . . = . . 8 ` . . . . . . = . . k G . = . . . = . . # Q b . . . . . = . = 8 ! ; . . . . . . . . i ",
"V . . . =   = . . @ Q b . . . . . = . . 8 ! = = . . . = = .   k G . =   . . . = . # E b . = . = . = . . 8 ! . . . . . . . . . i ",
"x 8 8 8 8 6 w 8 9 7 } u 8 8 6 6 8 8 8 8 i Q 9 8 8 6 6 8 8 8 8 L J 8 6 6 8 8 8 8 8 7 } s 2 w 8 2 8 8 8 8 i X.9 8 6 6 8 8 8 8 8 l ",
"-.&.[ W Y O.&.:.=.-.,.:.=.&.!  .o.*.&.&.*.-.*.[ ! T ..&.*.&.-.:.:.-.&.` Q #.&.[ [ &.-.&.&.! W  .;.&.-.&.-.,.:.-.&.Q O.&.&.&.&.*.",
"$ > < . 9 &.1 1 < 1 1 < , < . J ~ : ; ; ; > ; ; ; @ X.C < < < 1 < 1 > ; e [ 1 > < ; > ; > ; . v ^ : 1 < 1 1 < < ; % Q N < ; ; > ",
". . . . 8 [ $ . . . . . . . . z G = . . . . . . . @ Q M . . . . . . . . 8 ! ; . . . = . . .   z ~ . . . . . . . . @ Q b . . . . ",
". . . . 8 [ ; . . . . . . .   k A . . . . . . . . @ Q m   . . . . $ .   6 ! = .   . . . . . . l ~ .   . . = # . .   Y b . . . . ",
"# # @ # 7 Q & @ @ @ # @ @ X X j c @ @ @ @ @ # @ # + Y r @ @ @ # # # @ @ 7 T # @ # @ @ # @ # @ l c # @ @ @ # @ @ X o Y q @ # # @ ",
"Q Q Q X.o.1.o.Q | L } Q X.Q | #.;.Q Q Q P } | | | X.%.+.| | Y P } Q Q Q o.<.X.| Q Y U Q Q X.Q #.#.X.| Q L U Q | Q X.%.o.Q Q Y P ",
") N N N N B N N M r o.S M N N N M B M n s =.C C N B N N N N n T _ M N N N M B N M q +.F N N N N B N N m s &.N N N N N N N M b z ",
"S . . . . . . .   @ Q n . . . . . . . . w ` - . . . . . . .   z H . . . . . . . . # Q n   . . . . = . . 8 [ $ . . . . . . . . p ",
"Z . . . . . = . . # Q n . . . . = . = . w ` $ . . . . . . . . k H . . . . . . . . @ Q n . . . . . . . . 8 ! $ ;   . . . . = . i ",
"V . .   . . = . . @ Y q . . . . .   .   8 R . . . .   . . .   z A   . . . . . . . @ Y * . . . . . . . . 8 W . .   . . . . .   i ",
"Q k z j g g z z z z ..E z z j g h k z k L O.z z z j g k z z z } X.z z k g k z z z z O.T j k g g j z z k L O.z z k k g k z z z } ",
"^ ^ ~ G J #.) ) ' ] ] ' ' ^ G Y *.( ^ ^ ( ( ^ ^ G f $._ ' ] ' ] ] ) ) ~ J #.) ^ ^ ^ ) ^ ^ ~ d Q -.) ' ' ] ] ] ' ^ c O._ ^ ^ ^ ^ ",
". . . . 8 [ ; = . = = ; . . . z H - . . . = . = . @ Q m . . $ = $ = . = w ` ; = . . = . = =   z ^ = . = = $ . . = # Q m = . . = ",
". . . . 8 [ ; . . . . . # . . z A = . . . . . . . @ | m . . . . . . . . 8 W = . . . . . . . . k ~ . . . . . . $ . @ Q q = . . . ",
"= . . = 6 ! $ . . . . . . . . h d = . = . . . = = @ Q m . . . . = . .   5 ! = = . . . . . = . j ~ . . . . $ . . . @ Q < . . . . ",
"+ + + + t Q 6 + + + + + O o o j x + + + + + + + + 2 U u + + + + + + o o 4 E + + + + + + + + O l x + O + + + + O O O P w + + + O "
};
