/* XPM */
static char *_3981b2b11814ad2c324488fe455ca4c[] = {
/* columns rows colors chars-per-pixel */
"64 64 178 2 ",
"   c #080402",
".  c #0D0807",
"X  c #0E0908",
"o  c #110E0C",
"O  c #13110F",
"+  c #161411",
"@  c #181613",
"#  c #1B1916",
"$  c #1D1B19",
"%  c #23120F",
"&  c #2B1310",
"*  c #271915",
"=  c #221E1B",
"-  c #24211E",
";  c #2E231F",
":  c #272420",
">  c #292622",
",  c #2C2925",
"<  c #2F2C28",
"1  c #312E29",
"2  c #35322D",
"3  c #38352F",
"4  c #373530",
"5  c #3A3631",
"6  c #3E3A33",
"7  c #4E221C",
"8  c #5F2823",
"9  c #413D36",
"0  c #433F39",
"q  c #672B26",
"w  c #6A2E27",
"e  c #74362A",
"r  c #76382B",
"t  c #7B3B2C",
"y  c #733D34",
"u  c #45413A",
"i  c #49453E",
"p  c #614138",
"a  c #794137",
"s  c #4C4740",
"d  c #4E4A42",
"f  c #524D45",
"g  c #554F48",
"h  c #565049",
"j  c #5B544C",
"k  c #5E584F",
"l  c #5B5750",
"z  c #5F5950",
"x  c #625C52",
"c  c #676056",
"v  c #686056",
"b  c #666058",
"n  c #6E665D",
"m  c #6E6961",
"M  c #726C63",
"N  c #767169",
"B  c #7D766B",
"V  c #7F7A72",
"C  c #83402F",
"Z  c #874230",
"A  c #8B4432",
"S  c #974E3B",
"D  c #984F3C",
"F  c #824C42",
"G  c #8B554A",
"H  c #975240",
"J  c #965D51",
"K  c #A25A43",
"L  c #9C6356",
"P  c #9F6A5D",
"I  c #A66047",
"U  c #A76148",
"Y  c #AA644B",
"T  c #AE684F",
"R  c #AF6950",
"E  c #A96C59",
"W  c #B46D53",
"Q  c #B67057",
"!  c #B87057",
"~  c #BB745A",
"^  c #817C74",
"/  c #A36F62",
"(  c #A67062",
")  c #AA7363",
"_  c #A97A6C",
"`  c #B57767",
"'  c #B77866",
"]  c #B47A6A",
"[  c #B87F70",
"{  c #C0785F",
"}  c #C47C63",
"|  c #848178",
" . c #AD8375",
".. c #AF8679",
"X. c #B48172",
"o. c #BD8373",
"O. c #C88167",
"+. c #CA8269",
"@. c #CE886E",
"#. c #C08573",
"$. c #C88976",
"%. c #CB8D7C",
"&. c #D28C72",
"*. c #CE907F",
"=. c #D69279",
"-. c #DA957C",
";. c #DE987F",
":. c #8F8C84",
">. c #928B84",
",. c #9A978F",
"<. c #9E9C95",
"1. c #BB9386",
"2. c #A4A29A",
"3. c #AEACA6",
"4. c #B7B5AE",
"5. c #BBB9B2",
"6. c #CE9382",
"7. c #C6998A",
"8. c #D29483",
"9. c #D69986",
"0. c #DA9984",
"q. c #D69988",
"w. c #DB9E8C",
"e. c #C29D91",
"r. c #E19C85",
"t. c #DCA08E",
"y. c #CBA596",
"u. c #D7A696",
"i. c #E6A28B",
"p. c #E9A58E",
"a. c #E2A592",
"s. c #EAA790",
"d. c #E4A995",
"f. c #EDAB94",
"g. c #E6AB9B",
"h. c #EBAC9D",
"j. c #F2AF99",
"k. c #EDB39C",
"l. c #F4B39D",
"z. c #F4B89F",
"x. c #D5AFA0",
"c. c #C1B4AB",
"v. c #DBB8A9",
"b. c #C5BFB8",
"n. c #EDAEA0",
"m. c #E0B4A2",
"M. c #EFB3A3",
"N. c #F5B6A3",
"B. c #F8B7A4",
"V. c #F4BAA6",
"C. c #F9BCA6",
"Z. c #F6BDAB",
"A. c #FABEAA",
"S. c #F7C0AF",
"D. c #FBC2AD",
"F. c #EEC2B4",
"G. c #F7C3B4",
"H. c #FBC4B3",
"J. c #FCCAB5",
"K. c #FAC6BA",
"L. c #FBCCBC",
"P. c #D8CEC8",
"I. c #D8D1CA",
"U. c #D8D5D1",
"Y. c #DEDCD8",
"T. c #FCCCC0",
"R. c #FCD3C4",
"E. c #FCD8C7",
"W. c #E4DCD9",
"Q. c #EDEBD7",
"!. c #EFEED9",
"~. c #E5E3E1",
"^. c #E9E5E4",
"/. c #EDEDED",
"(. c #F0EAE5",
"). c #F2F2F2",
"_. c #FAF6F5",
"`. c #FEFEFE",
/* pixels */
"`.`./.`.`./.`.`./.`.`./.`.`./.`.`./.`.`./.`.`./.`.`./.).`././.`././.`././.`././.`././.`././.`.`./.`.`./.`.`./.`.`./.`.`./.`.`./.",
").)._.).)._.).)._.).)._.).)._.).)._.).)._.).)._.).).`._.)._._.).`._.).)._.).`._.)._._.).`._.).).).).U.4.n | b.b.)._.).)._.).)._.",
"/.).`././.`././.`././.`././.`././.`././.`././.`././.`._./.`.`./.`.`./.`.`./.`.`./.`.`./.`.`././.| : 1 = O $ i k k `././.`././.`.",
"`.`./.`.`./.`.`./.`.`./.`.`./.`.`./.`.`./.`.`./.`.`./.).`././.`././.`././.`././.`././.`././.U.s 4 : , z i h k h N /.`.`./.`.`./.",
"/.).`.)./.`.).).`./.).`.).)._.).).`./.).`./.).`./.).`.).).`.`./.`.`./.`.`./.`.`./.`.`./.`.M k c x z x x x j h n N _.).).`.)./.`.",
"/.).`././.`././.`././.`././.`././.`././.`././.`././.`._./.`.`./.`.`./.`.`./.`.`./.`.`.I.c c z x z b x l j f n n M `././.`././.`.",
"`._./.`.`./.`.`./.`.`./.`.`./.`.`./.`.`./.`.`./.`.`./._.`././.`././.`././.`././.`./.n z k k k k z z j l h v n n m /.`.`./.`.`./.",
"/.).`././.`././.`././.`././.`././.`././.`././.`././.`._./.`.`./.`.`./.`.`./.`.`.<.2 <.<.:.:.N <.1 - h j n n n n n `././.`././.`.",
"/.).`././.`././.`././.`././.`././.`././.`././.`././.`._./.`.`./.`.`./.`.`./.`.5 V <.<.<.<.<.<.c O - - n v n n n N `././.`././.`.",
"`.`./.`.`./.`.`./.`.`./.`.`./.`.`./.`.`./.`.`./.`.`./.).`././.`././.`././.I.h h j j h j h j h f $ - $ x c v n n 4./.`.`./.`.`./.",
"/.).`././.`./.).`././.`.)./.`././.`././.`./.).`././.`._./.`.`./.`.`./.`.j h h d h h h h d h u i u - , l v n n ^ /.`./.).`././.`.",
"/.).`././.`././.`././.`././.`././.`././.`././.`././.`._./.`.`./.`.`.I.d d d h f d d s i d u u 6 f > > k n v N /./.`././.`././.`.",
"`._./.`.`./.`.`./.`.`./.`.`./.`.`./.`.`./.`.`./.`.`./.).`././.2 < 2.- d : M < 6 d d f i u u 6 i | = $ k c c x `.`./.`.`./.`.`./.",
"/./.`././.`././.`././.`././.`././.`././.`././.`././.`._./.`.6 2 , I.6 4 2 B < , i d u u 6 - u 6 ^ $ j x c d ^ /./.`././.`././.`.",
"/.).`././.`././.`././.`././.`././.`././.`././.`././.`._./.)., < , !.Q.Q.!.l 2 < i i u 6 - , 5 6 x k h x k N _././.`././.`././.`.",
"`.`./.`.`./.`.`./.`.`./.`.`./.`.`./.`.`./.`.`./.`.`./._.Y.i 6 4 4 i 9 i u 6 2 2 u 6 < < > > 5 u h h u k 3 M /.`.`./.`.`./.`.`./.",
"/.).`././.`././.`././.`././.`././.`././.`././.`././.`.j 9 d u u i i i i i i u m i 6 2 - > > 2 9 h g x < s 5.`././.`././.`././.`.",
"/./.`././.`././.`././.`././.`././.`././.`././.`././.`.# # @ @ $ # $ $ $ $ $ - 1 i 2 f - > - 2 3 h k 2 u l ~.`././.`././.`././.`.",
"`._./.`.`./.`.`./.`.`./.`.`./.`.`./.`.`./.`.`./.`.`./.+ # @ @ + @ @ O + + @ # + $ @ d - > - 2 6 h u i u N `./.`.`./.`.`./.`.`./.",
"/.).`././.`././.`././.`././.`././.`././.`././.`././.`.O @ @ + X O O + O + - + + - @ i ; - > , u h 9 g u V /.`././.`././.`././.`.",
"/.).`./.).`././.`././.`././.`././.`././.`././.`././.`.O + o o o X o o O o o O O $ @ d > , > , u < u 9 d Q./.`././.`././.`././.`.",
"`.`./.`.`./.`.`./.`.`./.`.`./.`.`./.`.`./.`.`./.`.`./.+ @ $ $ $ $ $ # $ $ $ - o + O i > 1 - < 1 5 u n u `.`./.`.`./.`.`./.`.`./.",
"/.).`././.`././.`././.`././.`././.`././.`././.`././.`.O @ @ O @ O O O O O O o + $ @ u , > - $ 3 9 g g _././.`././.`././.`././.`.",
"/./.`././.`././.`././.`././.`././.`././.`././.`././.`.o @ o X o o O X X X o o O $ O 6 , : - 4 u h g k `././.`././.`././.`././.`.",
"`._./.`.`./.`.`./.`.`./.`.`./.`.`./.`.`./.`.`./.`.`./.+ @ o X o o o O o o X o + $ O u > > 4 u j 3.x >./.`.`./.`.`./.`.`./.`.`./.",
"/.).`././.`././.`././.`././.`././.`././.`././.`././.`.O O @ X o o O + @ o     O $ @ d , = 6 j b 3.k /.`././.`././.`././.`././.`.",
"/.).`././.`././.`././.`././.`././.`././.`././.`././.`.@ o   O O o . . X     X O # O d @ 1 u b 0 j b /.`././.`././.`././.`././.`.",
"`.`./.`.`./.`.`./.`.`./.`.`./.`.`./.`.`./.`.`./.`.`./.@ $ $ = > = o $ > > > , +   # u 2 , z i < g g `./.`.`./.`.`./.`.`./.`.`./.",
"/./.`././.`././.`././.`././.`././.`././.`././.`././.).5 o o o o o O o o O O o o     > 2 u x ^ N d - /.`././.`././.`././.`././.`.",
"/.).`././.`././.`././.`././.`././.`././.`././.`./.y.; @ > 1 1 1 1 1 2 2 2 2 6 4 2 - : k k k u x f $ /.`././.`././.`././.`././.`.",
"`._./.`.`./.`.`./.`.`./.`.`./.`.`./.`.`./.`.`./.6.8.1.o o - 1 > 2 4 2 6 4 4 u d < X 6 i i n f h h > `./.`.`./.`.`./.`.`./.`.`./.",
"/.).`././.`././.`././.`././.`././.`././.`./.^.w.w.8.%._ % o o # > 2 6 2 6 > # + O # < u 5 ^ n k f > /.`././.`././.`././.`././.`.",
"/.).`././.`././.`././.`././.`././.`././.`.W.q.q.q.%.} E D r & O o o o o o o o X X + # * 2 i x j f 3 /.`././.`././.`././.`././.`.",
"`.`./.`.`./.`.`./.`.`./.`.`./.`.`./.`.`.u.a.g.t.8.+.T J t 0 & . X X             X O O O * - h i i z `./.`.`./.`.`./.`.`./.`.`./.",
"/.).`././.`././.`././.`././.`././.`.Q.t.a.s.d.w.%.` J A q 7 . X X X X X X   X X X o X o # - f u i 3./.`././.`././.`././.`././.`.",
"/./.`././.`././.`././.`././.`././.x.t.h.k.M.N.t.%.` K F F 7 & . X X X X X X . X X X o o O = d f j /./.`././.`././.`././.`././.`.",
"`._./.`.`./.`.`./.`.`./.`.`./.q.u.g.j.N.C.Z.V.g.8.#.` J q & . o X X X X X X X X o o X o o * u i ,.`.`./.`.`./.`.`./.`.`./.`.`./.",
"/.).`././.`././.`././.`./.e.0.p.f.s.j.C.N.N.V.M.q.8.o.( t .   . X o o X o X o X o X o o o $ j i Y././.`././.`././.`././.`././.`.",
"/.).`././.`././.`././.`.6.+.;.f.l.j.B.C.A.A.A.l.g.8.8.#.F o   . X X o o o o O o o @ o o o $ 5 i Y././.).(./.`././.`././.`././.`.",
"`.`./.`.`./.`.`./.`.`./.} @.;.f.j.j.l.z.C.B.j.N.g.w.8.w.( &     X o X o o O + O @ O O O O # 2 n k.V.V.z.L.R.R.P.`./.`.`./.`.`./.",
"/./.`././.`././.`././.X.} O.;.p.f.j.z.z.N.Z.h.z.l.a.r.w.w.( .   X X o X O @ # @ @ + + + 3 # i k.m.f.p.p.u.E.T.H.v.`././.`././.`.",
"/.).`././.`././.`././.*.! } -.r.p.f.f.k.B.N.C.k.d.t.r.w.g.t./   X X o O @ @ $ $ @ @ O o O e.i.f.l.l.l.l.p.d.Z.L.A.`././.`././.`.",
"`._./.`.`./.`.`./.`.`.=.~ ~ ;.;.r.r.f.N.B.A.Z.A.M.g.q.=.g.n.n.7.  o o O + @ $ - $ # X @ 1.s.V.S.C.A.A.C.l.N.a.Z.F.V.`.`./.`.`./.",
"/.).`././.`././.`./.1.$.! ~ @.=.=.r.f.l.z.N.Z.A.S.V.k.8.8.n.n.Z.v.# O O @ + + o o X p w.V.J.J.J.H.H.D.H.G.n.N.w.g.g././.`././.`.",
"/.).`./.).`././.`./.' } ! { @.&.-.f.l.j.z.V.D.D.D.D.V.h.6.w.a.M.d.M.m @ $ @ @ # 5 q.k.D.H.J.J.J.J.J.J.D.A.Z.M.a.g.y././.`././.`.",
"`.`./.`.`./.`.`./.`.+.Q W +.{ +.p.p.f.j.k.C.D.D.D.D.C.z.d.8.g.B.h.p.g.y.@ x 1.a.z.M.H.H.J.J.L.J.H.D.H.H.G.Z.N.8.q.I.`.`./.`.`./.",
"/.).`././.`././.`.v.@.W ! { { &.t.p.f.l.z.D.D.D.D.D.C.N.l.a.q.q.h.a.t.g.V.M.V.z.V.A.H.J.L.J.J.J.L.L.J.D.G.N.V.8.o.`././.`././.`.",
"/./.`././.`././.`.( { ! ~ { W 0.-.r.i.z.d.z.z.D.D.D.D.D.A.l.g.i.t.w.w.d.N.k.k.k.V.G.H.H.J.J.D.J.L.J.H.H.D.H.Z.8...`././.`././.`.",
"`._./.`.`./.`.`./.+.{ ` ~ W } =.8.f.j.z.k.D.C.D.H.D.D.D.C.l.z.s.g.g.d.i.t.w.N.B.B.C.C.C.A.H.A.H.J.H.H.H.G.V.k.=.../.`.`./.`.`./.",
"/.).`././.`././.) ~ W ! R R #.w.f.p.i.s.l.z.C.H.G.D.D.D.D.N.z.z.k.f.s.d.k.k.f.z.l.j.l.B.A.H.K.H.H.H.D.S.V.d.w.%./.`././.`././.`.",
"/.).`././.`././.T U K R T T } r.f.r.r.r.w.l.C.J.J.J.D.D.C.C.C.z.N.z.k.Z.D.A.H.L.R.L.A.B.A.A.G.K.H.D.V.k.a.t.%.../.`././.`././.`.",
"`.`./.`.`./.`.(.A U R R D K R -.j.j.f.l.j.f.f.N.z.z.D.z.D.D.C.B.z.z.Z.H.H.J.K.R.R.L.H.A.A.A.A.A.D.V.V.k.w.8. .`.`./.`.`./.`.`./.",
"/./.`././.`./. .A I W ! U K R =.r.f.j.f.f.j.j.z.C.D.z.B.D.C.z.B.C.C.C.D.G.H.L.R.K.K.K.A.A.H.A.Z.V.k.a.u.*.o._ /./.`././.`././.`.",
"/.).`././.`./.F D Y T { U U ! -.r.r.s.f.f.r.f.l.p.s.f.i.p.j.j.f.V.D.D.D.H.K.L.L.T.H.K.L.K.A.Z.Z.k.t.t.6.o.) J /./.`././.`././.`.",
"`._./.`.`./.`.t A Y T ! Y Y { O.p.r.r.s.p.i.;.r.p.f.s.j.j.j.z.l.A.A.H.D.G.K.H.G.K.T.R.L.H.A.Z.M.a.w.8.#.) Z L `.`./.`.`./.`.`./.",
"/.).`././.`./.C S ! T ! ! W { &.-.s.f.s.r.s.r.p.i.i.s.i.l.C.C.C.B.D.D.J.L.L.K.T.G.T.K.L.K.H.n.d.q.9.o.] y A `././.`././.`././.`.",
"/./.`././.`.c.t S K W I ! W W O.} -.r.i.&.i.s.s.p.s.s.s.N.A.B.B.V.G.A.H.H.L.T.K.T.K.K.G.K.Z.h.8.8.=.o.E e P.`././.`././.`././.`.",
"`.`./.`.`.(.G t A K K { { { W { &.+.r.;.r.r.s.r.p.i.s.l.N.B.B.B.N.D.H.H.G.T.H.K.T.H.K.T.A.g.8.6.6.] [ y / `./.`.`./.`.`./.`.`./.",
"/.).`././.`.q Z t t K { Y Y { @.} r.-.;.r.;.r.i.i.r.p.j.B.N.B.B.D.G.H.D.K.T.K.T.R.K.G.G.V.t.w.6.[ ` P J ( /.`././.`././.`././.`.",
"/.).`././.`.t t A D D K Y Y W @.&.;.i.-.&.r.p.i.;.i.r.f.B.B.l.A.D.H.K.H.G.V.K.K.A.G.Z.g.d.q.8.$.) ( H J ( /.`././.`././.`././.`.",
"`._./.`.`./.t A S S S K { K K &.;.=.r.r.s.r.i.;.r.i.f.f.j.j.B.A.Z.H.T.T.G.G.H.Z.Z.M.M.n.a.w.8.] L w A K } `./.`.`./.`.`./.`.`./.",
"/.).`././.`.A t S K I { Y { O.{ +.;.&.s.i.s.;.r.9.r.i.l.l.A.B.A.A.K.Z.G.Z.H.Z.Z.n.g.g.a.w.w.o.( a w t D o.^.`././.`././.`././.`.",
"/./.`././.`.A K S T I { ! T @.@.} } -.&.p.i.r.s.p.f.h.j.l.j.N.Z.A.Z.Z.H.Z.N.M.M.M.n.g.d.q.8.] ] 8 w A K Q v.`././.`././.`././.`.",
"`.`./.`.`.(.A K T K Y Y { I @.@.@.} r.;.s.r.r.l.f.a.l.z.f.A.Z.B.n.K.n.Z.Z.M.N.n.N.w.a.a.6.[ E _ y r D Q +.#./.`.`./.`.`./.`.`./."
};
