/* XPM */
static char *a1389a28cce4464adceb5aef8ca5909aMqYYvJDJad7GydpL[] = {
/* columns rows colors chars-per-pixel */
"64 64 251 2 ",
"   c #170D00",
".  c #151304",
"X  c #1B1402",
"o  c #1D1A0C",
"O  c #1A1609",
"+  c #1C1C12",
"@  c #151815",
"#  c #0E0B03",
"$  c #231403",
"%  c #221A06",
"&  c #231C0B",
"*  c #2C1D0B",
"=  c #291905",
"-  c #341D0B",
";  c #231D12",
":  c #271E15",
">  c #361E13",
",  c #1C241C",
"<  c #2A220D",
"1  c #27210A",
"2  c #33220B",
"3  c #3A250B",
"4  c #242214",
"5  c #2C2413",
"6  c #24241A",
"7  c #2B251B",
"8  c #2C2A1C",
"9  c #2E2916",
"0  c #342513",
"q  c #342A14",
"w  c #3C2C15",
"e  c #342C1C",
"r  c #3B2C1B",
"t  c #392518",
"y  c #3C321C",
"u  c #38311A",
"i  c #2C2C23",
"p  c #282B26",
"a  c #332C23",
"s  c #382D25",
"d  c #2D3229",
"f  c #343225",
"g  c #3C3423",
"h  c #33332B",
"j  c #3C352B",
"k  c #3C392C",
"l  c #3A3829",
"z  c #2B3736",
"x  c #3C3C34",
"c  c #373936",
"v  c #2B2F31",
"b  c #1E2827",
"n  c #472A18",
"m  c #522D19",
"M  c #42341D",
"N  c #4C331B",
"B  c #483619",
"V  c #53331C",
"C  c #5A381A",
"Z  c #4C2B0B",
"A  c #663919",
"S  c #472D22",
"D  c #443423",
"F  c #4B3323",
"G  c #443B25",
"H  c #4C3B24",
"J  c #43342A",
"K  c #4C352A",
"L  c #433C2B",
"P  c #4B3B2B",
"I  c #533523",
"U  c #543B23",
"Y  c #5A3B23",
"T  c #543C2B",
"R  c #5A3D2B",
"E  c #573529",
"W  c #433C33",
"Q  c #4C3C32",
"!  c #473D39",
"~  c #533D32",
"^  c #5B3E35",
"/  c #552F28",
"(  c #653C28",
")  c #693F31",
"_  c #3D423A",
"`  c #54421A",
"'  c #65461C",
"]  c #4C412D",
"[  c #4A4127",
"{  c #54422C",
"}  c #5C432C",
"|  c #5A4628",
" . c #434234",
".. c #4A4334",
"X. c #44433B",
"o. c #4D443B",
"O. c #4D4A3C",
"+. c #4B4937",
"@. c #534433",
"#. c #5B4333",
"$. c #5C4B33",
"%. c #53443B",
"&. c #534B3B",
"*. c #5C4B3B",
"=. c #574738",
"-. c #5B523D",
";. c #56513A",
":. c #64442C",
">. c #68482A",
",. c #744A2B",
"<. c #76542C",
"1. c #644C34",
"2. c #6B4C34",
"3. c #664A39",
"4. c #754A38",
"5. c #6C5333",
"6. c #64533C",
"7. c #69563A",
"8. c #72553B",
"9. c #795738",
"0. c #6C542B",
"q. c #79663A",
"w. c #353C42",
"e. c #433E45",
"r. c #3C4444",
"t. c #3B474A",
"y. c #3B4B52",
"u. c #4C4C43",
"i. c #434B4B",
"p. c #494847",
"a. c #534D43",
"s. c #5C4D43",
"d. c #544C49",
"f. c #4B514B",
"g. c #545244",
"h. c #5B5343",
"j. c #54534C",
"k. c #5D544B",
"l. c #5B5A4D",
"z. c #5B5846",
"x. c #474D52",
"c. c #4A5557",
"v. c #5C5B53",
"b. c #5B5D5B",
"n. c #555756",
"m. c #554D54",
"M. c #664B43",
"N. c #635443",
"B. c #6A5543",
"V. c #6C5A44",
"C. c #635B4B",
"Z. c #6B5C4C",
"A. c #665749",
"S. c #735B44",
"D. c #745C4B",
"F. c #785846",
"G. c #645C53",
"H. c #675D56",
"J. c #765D54",
"K. c #744941",
"L. c #5D625A",
"P. c #69634B",
"I. c #73624B",
"U. c #7C644C",
"Y. c #796748",
"T. c #656254",
"R. c #6B6354",
"E. c #64635C",
"W. c #6B645A",
"Q. c #6B6959",
"!. c #736554",
"~. c #7A6453",
"^. c #776859",
"/. c #7B725D",
"(. c #575D63",
"). c #495A63",
"_. c #5C6263",
"`. c #58656A",
"'. c #596B74",
"]. c #546870",
"[. c #636564",
"{. c #6B6B64",
"}. c #6B6C6B",
"|. c #666968",
" X c #746C62",
".X c #736D68",
"XX c #6C726C",
"oX c #7B7263",
"OX c #74736B",
"+X c #7C7A6C",
"@X c #797469",
"#X c #676D73",
"$X c #697577",
"%X c #7C7C74",
"&X c #757977",
"*X c #736E72",
"=X c #84562B",
"-X c #865835",
";X c #814C2C",
":X c #8A633D",
">X c #855C47",
",X c #8F5F52",
"<X c #876647",
"1X c #956947",
"2X c #856A58",
"3X c #966554",
"4X c #88745A",
"5X c #947658",
"6X c #8A7948",
"7X c #A77655",
"8X c #816D63",
"9X c #837364",
"0X c #877A69",
"qX c #967C67",
"wX c #847C74",
"eX c #95766F",
"rX c #A17464",
"tX c #7B827C",
"yX c #8A836A",
"uX c #96866A",
"iX c #888479",
"pX c #968978",
"aX c #9A927C",
"sX c #AE9172",
"dX c #968B5D",
"fX c #C5946F",
"gX c #6C7C86",
"hX c #727D85",
"jX c #5D7581",
"kX c #7A8588",
"lX c #748792",
"zX c #878987",
"xX c #978C84",
"cX c #999488",
"vX c #889395",
"bX c #949898",
"nX c #87908E",
"mX c #A49789",
"MX c #B09B88",
"NX c #A7A498",
"BX c #B7AC96",
"VX c #939BA3",
"CX c #99A3A5",
"ZX c #A5A8A8",
"AX c #B0AEAE",
"SX c #C9A889",
"DX c #C7B094",
"FX c #C6BDA0",
"GX c #CBC7B1",
"HX c #D4DAD6",
"JX c #BAC5C9",
/* pixels */
"9 # u +.u [ u [ u 1 9 l l.wXiX@X+X&X Xh `.gX|.L.4 l _ f %X$X#X).'.lXlX].z $XtXXX{.v.T.T.Z.3.3X>XeX4.R J.,XM.[.zX#XbXNXAXBXyX: ! ",
"4 . X o % % X 1 X o 6 _ oXoXwX0X%XOXT.h $X`.c f _ f.+.l tXkX`.$XlXlXvX).z L.l.l.c O.+XR.%.~ J.rX3X:./ R M.K [..X(.bXXXa.H.D 0 G.",
"+ 4 _ o . % 1 1 1 4 i d ! G.o.i i O.p z ).r.6 c X.l.+._ L.tXkXVXlXCXvXf.u.tXz.y a l.pX@XZ.*.2XF.2.F.qX2XJ.t H.f.[.b.x j + o a ^.",
"L.P._ _ _ ;.-.-.z.XXL.L.h . & k j.L.n.$X&X#XW 7 ; 4 o d %XZXCXbXCXkXtXy._ p e o 5 a.j Q Q t > n n n S T s : k j.G.c a W i 7 a o.",
"Y.P.g k yXpX$.$._ tXlXtXXXQ.aXiXcXvXVXlXVXJXb.M.^.2XJ.! e.J a x x.c.x.`.).b @ 9 e.^ s a : J s K #.K K J J ~ j W s.s.H.! j ! ! a ",
"0.0.q q BXaX| $.z.tX].tXtX/.BXyXu.&XgX].gXVXp. XsX3XrXK.J.d.h v.r.t.y.'.'.`.c u.M.H.M.! e.J.J.8XF.J.A.3.2X~.~ L ^ ^ ~ M.M.e.d.~ ",
"<.>.2  .GXcX7.-.tXf.tXlXz.;.BXpX] E.lX$X'.lX[.J.rX,XK.>XF.e.! p._ r.c.c.c.#Xc h.M.^ ^ / ) K.,X,X4.4./ 2.<X<XT t m E / S ^ ^ F.J.",
">.` = &.FXBXP.T.L.tXkXCXz.dXaXP.` &.|.lXlXlXH.F.3X3X3XrX3X^ d.x._ ].$Xc.i.c d ~ J.K.M.E M.3X>X4.,.( m ,.:X7XI N V V S S / S S ^ ",
"0.5.q h.GXaX+XOXtXtXbXAXQ.Y.BXdX| | g.hXkX$Xs.8.,X,X1X3X4.K x $X].lXy._ i X.k %.F.K.K./ ) 3X;X;XA ,.( 9.-X1XN n m V m n S > n > ",
"1.{ 1 R.GXGXAXzXnXkXAXAXC.Q.GXyXH M ..x kX|.~ F.;X1X;X) m t : c.jXz , 8 j 8 6 a./ ) K.) / >X-X;XA A Z 9.-X1XH t n m m n n S m > ",
"5 X . k g.tXl.g.cXcXtXaXz.[ yXP.[ l.+XL.&XO.r 8.A -X-XA m * 7  ._ _ _ b x v p s E ) ) m - n :.:.,.<.C 9.=X:Xn D E E m n n m n > ",
"W.l.a.G.l.+...a._ l % . + +.;.P.f.z _ {.x 4 k.-.) >X:.m - q 9 4 ;._ f.L._.#Xm.! t > > t : = - V n E @.I.q.<Xs t $ - n - n t t J ",
"2X~.xXeXJ.M.iXaX0XoX+.+.XXL.L.O.c.t.+.{.|.#X*X$Xb.i : * L O.g.s._ h i H.CXhX(.*XH.e.s t Q ! ! e.k c ! p.A.! d v : O @ o   O a c ",
"> > K./ ^ Q ! wXA.#./. .z.+._ d r.v L.CXc.).(.gXgXhX! a oXcXxXpXcXpXH..Xm.w.c e.! ! u.W.J.A.! ! p.|.b.(.b.#X&X&X(.(.*Xx.p.f.&X}.",
"t E ^ / n S @.xXS.2.6X@.T.f.b _ y.z _.ZX#X'.].].`.r.c a U.8.8.S.yXwXwXn.m.b.H.k.e.Q ~ A.M.#.J j v p.c c x.n.x.#X(.(.kX#Xe.}.nX[.",
"/ / F.S n F ..0XF.:.q.` f + z t.c.w.c.CX'.y.t.t.z i.c e >.Z C :X4XDX9Xs.^.J.J.M.3.3.^ M.^ R *.W h p.w.w.x.w.i.(.[.n.x.'.(.*X&Xn.",
") K.2X/ R n 3.6.Z >.-XB q h t.`.y.p tXNXc.t._ t._ _ _ u ` 0.9.9.>.sX~.#.6.$.V.1.F.B.U D.#.=.*.a ! b.c.x.m.x.x.x.(.(.`.c.w.|.OXv.",
"m ) #.n E > @.I.>.9.2Xn l f.`.]._ _ tXtXc.d b z , d , 9 | 0.9.' 0.4X1.H 1.1.Y.qX4X7.H 3.$.3.@.: x |.(.|.(.w.w.x.(.(.`.x.r.[.v.G.",
"> : & % & X G G | 2.1.0 l j.$X(._ d tXtXr.@ , z 8 d , 9 l [ | ` 4X1.r < [ 6.] H *.M 2 H 1.@.r 7 k.zXc.x.m.w.).c.m.(.(.b.i.[.[.oX",
"k j k h X.j.O.5 $ -     8 +., @ f._ , _ i . @ 8 9 , 1 u ;.P.| B = $ q ..] q & X & < 5 X & { j o c zXnXzX(.w.(.(.i.(.*X`.c p.E.{.",
"tXtXkXkXvXkXkXj.a.*.K s e i u.+XoX+X4 . 7 f 7 f ;.f.+.tXGXFXSXq.n Z.Z.H.D.K & 7 e ..{.{.X.7 ; : @ p.*XwXhXH.v c v v c e.k c v.u.",
"l.XXnXkXnXkXXXX.0X^.!.~.o.a oX!.N./.f  .l.oXiXpXaXtX;.tXBXsX6X' V.A.S n > - e R./.9XoXR.E.s n.bXwXzXhXe.e.e.! e.m.H.! ! ! a @ 6 ",
"& L.kXkXtX{.L.Q.!.E 3.T s r 2XI.$.$.& L V.V.I.0Xq.z.l [ q.q.6X' I E R m m 3 * U.Y.9.:.F F > zXAXZXAXAXVXZXhXe.m.Q t s K s s (.hX",
"5 a.nXtXl.z...;.( C C U S t D.{ $.$.X g P { 3 w ` tX+.+ 6XdXdXq.Z ) ,.m Z 3 3 1.C ,.>.5.3.S [.zXZXVXVXAXxXeXJ.J J S Q / S v *XhX",
"; k.iXL.Q.+.y | { V C :.F w !.B.{ V.% 1 q M w 3 2 B 1 X q.tX' 0.Y ,.( A m m C 8.<.,.>.2.:.t H._.(.zXzXwXk.W.s.! S J K S s ! hXgX",
"8 W -.+.+.+.[ ] ` C C U w < V.3.$.6.o . X 1 w w 1 1 1 < 7.` ' 0.C 2.( A ( m V 5X<.' -X2.} t o.k..Xm.G.! a.A.Q a.^ / / / > ! hXx.",
"4 +.P.z.+.y s t B Y 2.:.% 5 ;.[ { o . d h 4 X O 1 < 1 1 ` [ [ 2 V 9.( A >.I - 8.| A <.:.Y $ * k ! H.R.&.Q s.a a.H.K.^ / S ! p.c ",
"W f . 9 ..A.{.H.H U Z B 1 i 9 4 9 o L.OX|.E.+.; 4 X O < 1 u ] Z.P n n Z n 2 0 w U Y Z 3 = : L l.g.%.Q &.s.s.j a.A.M.^ ^ * j j p ",
"NX^.h g.R.~ K  X^.2XB.$ L +XcXO., {.nXcXtXtXX.X.Q.^.k.g ..oXpXcXj.7 t y % a O.a 9 F R S r x l._ a o % +. XO.: + i > * > s i 6 : ",
"wXoXc X.j > s t S D.2X5 &.XXQ._ _ XXi.{.iXL.d u./.mXmXC.L zXiXv.v.+.^.0X!.!.Q.a.G.8XJ.2XZ.&.n.f.x 7 4 & q %..XG.& & 7 Q s.M.k.e.",
"cXxX8 +.Q S n / T #.T t Q.%XQ. ._ $XnXl.L.h l k.pXMXsXqX..Q.H.oXh.P S.>.5.8.V.=.K.Y m n 2.9Xp.i.r.i  .-.Z.pX8XoXG.s %.^ / M.e.Q ",
"BXMX4 W S r * > K F w % Q.iXoX ., |.OX_ i X.k ^.aXDXMX<X=.k D &.G F Y.,.>.8.7.B Y Y C m Y S c n._ h a.oX8XqX~.2XJ.e.d.^ ^ ^ / ! ",
"BX/.% f e > t w w H q 1 +X+XR.P.4 l.g.k a h x H.pXBXY.7.L L L C...H 9.<.9.8.1.3 N m V Y Y D h $Xn.r.[.iXs.=.~.Z.R.K ~ K F S s ! ",
"dX;.O f 8 0 g e * & o o z.P.h.P.4 u.;.;.W 8 k h.9X4X7.@.g ..&.k.g G 0.<.:Xq.7.< N I I I #.J d |.XX_ [. XA.K w H r G S S N S J ^ ",
"yX;.. i + O O o 4 o . + T.yXz.9 + 4 X e f 4 f C.S.DX9XH 7 _ C.L 9 y H 0.<X<XY.0 F T ~ S #.g v |.hXh X.s.Z.V.B.3.N.K #.K I K t M.",
"C.g ..u.W l &.&.....g.l f f + o 6 d X.6 + 4 l k N.S.-.7 a k a ; ; 7 M { ` | 2 & * 0 > t a 4 W }.n.c + 9 N.J.Z.Z.%.@.*.T n F S s.",
"E.NXmXxXmXwX0X4X2XqX0X!.g.i h &XZXAXCXlXXXf.Q.L % . o X.[.XX[.b.p.X.7 5 q g L W W 7 7 s f f u.R.E.X.6 O & e g 5 e A.B.F.B.T t j ",
"ZXBX#.#.Z.Z.F.9.9.q.8.U.k.x _.JXHXJXCXCXzX_ Q.^.] . j {.*Xn.c.[.[.E.+.W.^.Q.0XaXMXwXe.oXiXmXA.$ 6 l _ _ L f y -.A.g 0 0 3 - * = ",
"NX9X#.D.3.w ,.=X=X=X:XsX$.T.HXHXvXtXvXnXXXf H 6.P.L L ..H.m.|.*Xb.H.G.!.^ E 4.>X>XK.V 5XSXsXsX3Xe L.iXOXk oXuX2X0X4X/.=.M !.Z.3.",
"eXN.qXuXY.1.' =X=X=X=Xm M yXnXiXtXaXtXbXiX5 { Y.iX&...+X Xs.[.[.j h.o.D ( ( ) K.,.,.C 1XfX7XfXSXR.p.[.u.O A.Y.>X<X4X4X4XN.uX4XqX",
"oXB.I.7.Y.6.U 0.<.;X<.>.w iX+XP.aXNXbXNXtX9 [ | 4X+.k.wX..g a.d.o.W e r T :.:.( ( I Z F.7XfXfXSX9Xj.OXv.& I.5X6X<X>.| 7.$.7.9.<.",
"pXs.$.yXsX7.r w m C :.V 0 aXGXGXyX;.yXaX[ 9 7.7.P. .v.O.G *.-.P J q g w } C R m U n = <XSXfX7XSX^.W.cXT.7 { ' <.<X:X5.5.| >.' ' ",
"=.g &.] H P G.C.o.r 0 & & cXGXGXtX7.P.Y.u 1 P.C.9 4 7 5 < [ @.M w B ] 3 3 V V } U M & !.SXfXsXSX3.O.wX..O { 0.<.5.Y.Y.>.$.9.Z Z ",
"& $ q &.T ~ W.H.0X Xd.f.j.v.P.-.` ` ;.q X l 1 X 4 g.G.W 9 M u 1 w M [ y = 2 2 * $ 5 j L J.F.2XM.: o f o . 9 7.$.1.7.2X| w 7.' ' ",
"aX] B.V.T B.E #.#.M.b.%XL.f.X._ 9 N...l +.R.l.h #XCXzX+X+X/.I.$.M P.!.9XH.k a.W.k.g.p.c w.d.d.h x 7 @ 6 l u.e 9 q 5 r s q o O . ",
"~.H T R 2.2.F.>X<XR W x.t.c.`.L.l.l.&.+XQ.cXOXc vX#Xk.a.N.U.7.V.N.4X8X8X0X+X.X@XoXW.H.c.#X#XgXkX}.O.u.+XtX%XpXQ.e P @.&.+.i j h.",
"[ n { N.E 1.F.8.3X6.g.E.L.).)._ _ P.^.O.-.pX0X+.&Xx.n.&.8.5X0.V 7.D.4.:.^ 3.G.+.Q.*.v.p.c.t.c.i.! p.T.cX/.P.yX~.=./.B.T Q g Z.S.",
"$.B ~ $.I 2.( :.:.B.W '.$X'.).z 9 ;.0XW l C.P.o.H.[.G.N.<X5X' :.2.4.8.>X9.:.A.!.yXpX@Xs b.c.t.t.c +.P.9XP.4X4XS.K B.( T Q s S.:.",
"dXB w 3.3.S.F.( R D j `.].).y.z +./.Q...C.;.@.] {.{.H.D.<X5X>.C F.>X9.1X<X9.V.cXpX!.&.7 h _ y.x.r.x ] V.Y.aXdXY.2 H | } Q s S.5.",
"7.2 g *.3.<XF.8.1.N.p.(.].'.y.b ;.9XP.R.l.-...G @Xk.C.I.$.| B ` 8.>X9.,.-X2.7.oX[ G e u 4 p f.i.i.f.;.q.yX7.6X$.= F R H W r 1.2.",
"q w r K F.F.>XF.2Xs.! #X$X'.i.+ ../.0XoXR.oXR.G !.[ q 3 2 3 $.C N 1.>.,.:.:.H y -.G V. .u.d p f.L.u.H 5.Y.7.4XB = P P K j e 7.8.",
"[ L g D ^ N } I n   + z _ _ h 8 P z.+.g -.Z.G q u 2 1 . q w [ [ w H :.A >.B 2 ;.{ ;.-.9 _ O.f 7 p 4 M | 0.Y.7.2 $ e r s 7 4 F { ",
"cXcXeXeX8X~ 2 X < +.a.k , i _ Q.v.8 % X $ < - Y.| 2 y L g [ r M G < - = 2 w u q 1 u % 4 ; 4 4 9 8 y g t w y y G g o O : x j.i # ",
".X8XJ.2XeXpXH G yXQ.oXmXtXQ.tXtXOX_ &.7.Y.5X5X4X4X7...W.T.Q.T.h.g.-.-.@.6.3.;.u q M z.V.P.h.-.Z.R.R.!.Z.w & @.7.C.s.d.G.[.|.[.m.",
"J.A.J.J.J.*.r oXZ.y /.0XC.-.XXOXL.W V.S.<X-X:X=X6X5.P v.OX%Xa. XiXcXpX^.D.D.D.!.pXuX8.$.6.h.h.=.@.*.~ s.A.%.U.8.B.s.! e.d.m.p.p.",
"J.J.A.J.D.V.t A.V.I./.!.@.+.T.XXv.s U -X-X=X-X=X=X>.] .XE.@Xj s.wXOX XI.B.2XZ.0X~.5.` | @.~ *.P K F ~ Q %.N.S.2X~.%.d.m.e.p.m.! ",
"Z.B.s.Z.M.N.& G oXpXcXaXD G T.v.g.G S.1X-X7X1X-X1XC Q 0XW L o.iXxXG.=.B 7.F.#.$.B V >.5.1.3.{ K T ^ Q ~ P ~ D.4XqXQ e.e.e.m.|.[.",
"^ %.M.s.Q K $ 2 e L r e % q z.O. .H 9.:X-X<.,.,.1X0.@.H.l ..o.0XH.L G H S.1.T w V ` C C 1.I.F H T K ~ %.~ n 4XsX/.D m.w.e.p.H..X",
"g r r : o   % 5     X . # u Q.T._ 1 3 >.<X<Xm - N C t < e ..e g K P.-.H 6.$.r H 1.9.<X5X5X8.y u G T ~ @.D 9 6.$.0 : p.e.e.h s ! ",
"M % $ X $ & P 6.@.P y e 9 g _ 9 9 y D < Z 3 2 2 3 B ] ..0 < 1 e g k L e 5 < X F { >.:.5.1.K t 2 - r > $   X e = & k d.e.! a s J ",
"0XP.5 q H G H { N.#.g .XiX0XO.x E.k.[.$Xf.l.a.L I.~.0XpXN.&.-.y i i u.}.v.+.f f @.J % 5 e W G.^.P S *.P s.! $ k b.x h a 7 : : ; ",
"@.{ 3 < $.$.U T 1.P P iX@X.X}.iX.Xm._.$X$X&X&Xc g D L P I.0X/.&.u.XX`.x.f._.+ h j.T...+X%XT.E.C.A.4X0X0X XH.a.E.*X|.p 7 ! A.k.j ",
"[ { y y !.0X2XB.} w o.wX*X*X_.*X(.#X#Xc.).'.$Xv a N.H.N.!.-.6.;._ $X].t.y.y.. h f.E.O.Q.g.u ..k.P Z.B.Z.@XW.l XX#X$Xp.b.xX X^.s.",
"| { G ] &.=.J.~.U 2 Q wXOX*XhX&X#X#Xz L.'.$XgX@ i +XA.Z.{ ] M l c.$X).y.x.v # ! G.E.a.g.l 4 y P F #.3.Z.W.^.h x.$X$X[.}.0Xs.oX*."
};
