/* XPM */
static char *ffb3d9e74adb4ae4de3fc33ece8b57ffUwju9F21TTFUk8Tc[] = {
/* columns rows colors chars-per-pixel */
"64 64 184 2 ",
"   c #1B1B19",
".  c #1C1D15",
"X  c #23231F",
"o  c #242520",
"O  c #2A2824",
"+  c #36352D",
"@  c #353632",
"#  c #3C3C35",
"$  c #3D3E3B",
"%  c #473F3C",
"&  c #3F403A",
"*  c #43433D",
"=  c #49463F",
"-  c #47493E",
";  c #474743",
":  c #4A4740",
">  c #474842",
",  c #4B4B45",
"<  c #4D4B49",
"1  c #514C44",
"2  c #534C49",
"3  c #5A4F4B",
"4  c #4E5043",
"5  c #4F5048",
"6  c #515146",
"7  c #54534D",
"8  c #59554B",
"9  c #57594B",
"0  c #5B5B4D",
"q  c #555552",
"w  c #5A5652",
"e  c #575852",
"r  c #5D5B55",
"t  c #5C5C5B",
"y  c #615755",
"u  c #625B55",
"i  c #635D5A",
"p  c #695E5C",
"a  c #5E6251",
"s  c #5F615A",
"d  c #636157",
"f  c #686957",
"g  c #64635C",
"h  c #69635C",
"j  c #6B6A5E",
"k  c #746D5E",
"l  c #78705B",
"z  c #666561",
"x  c #6B6662",
"c  c #676A63",
"v  c #6C6A64",
"b  c #6D6D69",
"n  c #716664",
"m  c #726C64",
"M  c #726E69",
"N  c #786F68",
"B  c #6E7065",
"V  c #6E716B",
"C  c #727164",
"Z  c #797466",
"A  c #74736C",
"S  c #7A746C",
"D  c #76786D",
"F  c #7B796E",
"G  c #757573",
"H  c #7B7571",
"J  c #777872",
"K  c #7C7B73",
"L  c #77777A",
"P  c #7D7D7A",
"I  c #80766E",
"U  c #817E6D",
"Y  c #807770",
"T  c #837C74",
"R  c #887F76",
"E  c #837E7A",
"W  c #897F7A",
"Q  c #7F807A",
"!  c #87826E",
"~  c #848276",
"^  c #8A8275",
"/  c #8E8C77",
"(  c #84837C",
")  c #8A847C",
"_  c #85887D",
"`  c #8D897E",
"'  c #948C7F",
"]  c #9A927F",
"[  c #817F80",
"{  c #7E8180",
"}  c #858581",
"|  c #8B8582",
" . c #878983",
".. c #8D8B83",
"X. c #868789",
"o. c #868A89",
"O. c #8D8C89",
"+. c #918783",
"@. c #928C84",
"#. c #9B8E86",
"$. c #938E8A",
"%. c #9A8F8C",
"&. c #8F918B",
"*. c #949186",
"=. c #999285",
"-. c #94938C",
";. c #9B958C",
":. c #97998E",
">. c #9C9A8E",
",. c #8E9190",
"<. c #949593",
"1. c #9A9692",
"2. c #979992",
"3. c #9F9E95",
"4. c #9C9B93",
"5. c #999798",
"6. c #9E9E98",
"7. c #9C9D9A",
"8. c #95999A",
"9. c #A1968D",
"0. c #A39B8E",
"q. c #A09694",
"w. c #A29A92",
"e. c #A19B96",
"r. c #A29E96",
"t. c #A39C94",
"y. c #AA9D94",
"u. c #A19D99",
"i. c #A29D99",
"p. c #A89F98",
"a. c #9EA095",
"s. c #9EA09A",
"d. c #9EA09C",
"f. c #A5A18E",
"g. c #A8A18E",
"h. c #A4A195",
"j. c #A9A097",
"k. c #A9A195",
"l. c #A2A39B",
"z. c #A2A29D",
"x. c #A5A19C",
"c. c #A6A59E",
"v. c #A4A39C",
"b. c #AAA59C",
"n. c #ACA99D",
"m. c #B2A496",
"M. c #B3A59A",
"N. c #B1AB9F",
"B. c #B9A89E",
"V. c #A5A5A1",
"C. c #A5A5A3",
"Z. c #AAA6A1",
"A. c #A7A8A2",
"S. c #A7A9A2",
"D. c #ABADA0",
"F. c #AEABA5",
"G. c #ACAAA3",
"H. c #A6A6A8",
"J. c #AFAFAF",
"K. c #ACACA9",
"L. c #B2A7A1",
"P. c #B5AFA3",
"I. c #B2ACA3",
"U. c #B1AEA9",
"Y. c #AFB1A4",
"T. c #AFB0AA",
"R. c #B3B2A5",
"E. c #B4B2AB",
"W. c #BAB5AC",
"Q. c #BCBBAE",
"!. c #B4B5B2",
"~. c #B9B5B0",
"^. c #BDBBB5",
"/. c #BCBCBC",
"(. c #C1BBAA",
"). c #C2BEB6",
"_. c #C4BFBA",
"`. c #C5C1BB",
"'. c #C8C4B9",
"]. c #CACBBD",
"[. c #BCBDC0",
"{. c #CCCAC5",
"}. c #CCCBC9",
"|. c #D3D2C6",
/* pixels */
"Q A A z V g c g V K J Q 4.7 c V V b A Q :.k i r v &   r c [ d.,.E A G z b g c z b K K Q 2.9 z b V V A Q :.k d e v &   e c { d.,.",
"1.-. .<.&. .(  .}  .s.n.S.V J.G.2...} d.I.] ) G -.&.& &.E.<.5.1.7.$. .-.&...( } _ | d.G.S.V J.G.<. .} d.I.] ) G -.&.$ :.J.<.4.<.",
"..W M ( s.( P ( J K O.>.s.G S.C.L 1.G 2.-.n.' Z  .A 5 d.-.} ..%...( M } s._ Q { G K ..>.d.G S.C.J 1.J :.$.n.@.C  .A 7 6.-.} O.%.",
"..K M D <. . .K A b ~ &.C.L z.,.o.e.) 1.w.4.` ..J } g 7.7.O.W ..+.T M H &. . .J A V Q &.C.G z.<.o.i.} :.y.w.` ..J _ s x.7.O.W O.",
"W H K H A | S C K D Q Q 2.Q J.6.&.5.O.b.G.Z.l.l.*.4.-.a.1.| +.$.W A H H D | K C H D E Q 2.} K.s.<.5.$.Z.b.F.V.c...a.*.j.1.| +.+.",
"T +.` @.@.R.p.;.K K A J A , &.c.1.3.| 1.e.t.:.-.( D v  ...:.t.) T ' ..@.@.P.p.;.K J A J A , &.b.1.7.| x.4.c.O.-.) D c  .) 1.y.+.",
"S A c P | S ^ D 7 e r r f Q _ ;.) ( K _ < 7 J s.~ A J B v a m u S N x P | S R A 8 0 t a j J / *.( ~ ( g 7 t ( 4.P A J V j a v u ",
"Z.4.4.V.F.M +.' ' T ` ] 0.(.n.h.-.~ -.l.7 l.a.:.h.:.*.-.` ..t.t.b.4.3.c.G.M @.@.' T ) =.f.(.N.h.;.~ i.V A R.2.:.j.:.*.-... .j.>.",
"l.:.-.O. .F ;.k.B.' ~ $.0.0.k.c.n.=.@.O.r n.*.` @.*.@.) @.>._ *.c.&.:. . .F ;.k.B.` ~ *.0.g.h.v.n.=.:.c Q G.*.` ` -.*.) ` :.` @.",
"s.:._ ( -.F >.m.M.~ ~ #.w.' h.h.n.*.w.T C Y.` :.4.:.>.h.b.;...t.x.:.} ( &.F >.m.M.~ ( ;.0.` h.h.v.*.h.v  .n.*.-.4.:.>.h.n.;.+.>.",
"l..._ _ 2.` t.m.0.x.4.t.h.h.N.k.R.4.!.N _ ^.a.v.b.t.j.b.t.>.;.t.l.*.( _ 1.` y.m.w.b.w.0.y.h.n.k.R.4.Y.f 2.Q.3.c.b.>.h.n.t.>.:.t.",
"*...*.;.I.>.*.n.x.R.E.n.W.k.n.l.K.G._.x -.|.W.R.P.W.Q.n.R.E.x.:.:.` -.:.R.4.*.L.c.U.R.b.W.b.n.x.R.D.'.g :.|.W.R.P.W.Q.N.R.E.j.*.",
"v C v : , = Z l ~ r 2 i j 0 1 9 g t # o @ , i M Z F ) ~ @.~ M u j M x : : = i 0 f f d h m 0 1 r , X X X @ < t m Z H } W .._ S d ",
"D.`.i.8 h ~ ^ U / 0 Z m ( W.v.@.Z | Z.; X.L ~ i.;.K G | ^ l @.*.:.R.1.8 d ~ U F U / U N ) E.x.+.C v } , X.L } L.x.E P $.-.! r.x.",
"E.~.e.x b.I.S i.;.B t.+.^ #.b.W.w.U.K.< P <.1.e.Z.| | c.p.@.r.r.i.j.@.v b.I.F 1.x.).p.@.R #.j.(.e.E.U.2 ,.C.F.b.U.p.e.~.E.p.E.E.",
"T.E.| ) Z.| u r...0 t.;.Y ^ w.w.) $.Z.7 L $.1.) ' ..1.} -.i.;.<.x.c.T ( E.Z.T +.t.t.+.p.I ( w.w.) $.Z.w O.z.U.1.e.i.F.1.Z.E.b.Z.",
"C.T.G *.G.A 3 H ) d p.@.Z ..#.) S -.1.q G +.%.[ $.%.%.o.} 1.-.o.2.4.c -.E.*.E ~ R ) ) @.N ` $.) F %.<.t X.w.i.<.7.i.i.d.5.Z.Z.5.",
"H./.t *.R.E p m K j I.9.( #.@.) T A.$.w G P X.W E X.o.<.O.-.5.O.5.T.r -.G.W J W +.@.@.4.) ;.@.| T Z.$.i } 1.i.<.-.4.7.C.i.V.C.z.",
"&.2.& P } b y y v 8 M F ~ g h m w E M < M w w x x M } @.@.;.O.( ..2.$ T } v e h N Z x F T g h N w W b < H x x A M M | @.*.1.&.} ",
"<.} :.-.<.-.J P O.<.P ..7 ..' >.4.w.| ;.W x 2 M w 2 q.v c [.7.5.5.[ -.-.<.<.L K O.<.( ..7 R ^ ;.:.;.} #.E i ; h 2 % $.x c [.7.2.",
"C.E.A.A.A.G.K.G.!.[.!.{.z >.M.M.w.@.,.%.5.+.H 1.$.$._.w L /.C.H.V.J.A.G.A.G.K.G.!./.K.{.s ) y.9.+.T ( ) @.T n ( E T U.2 P /.d.K.",
"7.C.Z.D.3.z.C.V.[.!.K.{.v @.w.;.+.T H v m %.| #.%.1.W.i <.T.l.5.7.V.Z.A.7.i.V.C././.K.{.v K ) ^ Y n i w y [ Y E E | Z.i <.J.d.<.",
"<.i.E.7.-.<.s.6./.H.5.{.H +.w.` +.R N H N $.%.1.$.} K.N 8.C.C.5.<.i.E.7.-.2.l.5./.K.5.{.S T ;.R T N x x p T ) | L H q.M 8.A.H.<.",
",.F.P.z.b.Z.<.<.K.C.7.}.H [ c.7.y.p.@.$.+.} @.7.A <.Z.b { H.S.S.<.G.P.x.Z.D.<.<.K.C.d.}.G M q.;.9.%.E T I Y T | i | %.z [ H.H.H.",
":.v.(.P.W.G.4.F.c.R.n.Q.u ` D.n.n.I.b.-.*.-.:.=.>.F ' j _ 3.G.D.:.b.(.R.W.n.7.F.c.R.n.Q.r J :.;.>.t.*.~ ^ ( _ ( ) h F d _ a.F.Y.",
"w 9 j Z A F ~ @.*.*.~ *.g K *.*.T M f 6 h ~ T S F j k 7 d v Q B 9 9 j A Z F ~ *.*.;.~ ..j F ` _ D j i , d ! F A Z j j 2 g v Q B ",
"G J i.z G <.} X.-.O.:.2.F.F.G.V.C.} d.x...V.:.2.-.G.E.E.i.O.X.P G G t.x G -._ o.-.O.-.2.T.K.Y.D.Z.} C.e...C.2.4.:.S.~.W.i.O.` Q ",
"H ..U.S $.Z.| W @.E ..:.i.t.4.I.I.I.~.Z.| *.O.:.*._ k.2.;.;.| N H O.K.S O.Z.} ) +.E ..1.t.t.4.I.I.Z.E.D.| -...;.@.) x.:.;.:.) A ",
"M G z.A >.1.H H ) S E S i.9.y.j.b.p.U.Z.@.t.` 4.@.@.w.E E H S r n H i.C 1.2.H S } S E S y.;.w.j.j.j.U.F...t...w.@.+.w.E T H N r ",
"n D 1.H *.r.h K ,.E E ( x.=.0.=.;.+.i.I.@.-.b.E.1.I.M.E H u y y b H 5.H *.x.h Y ,.E E ( h.9.y.=.;.@.i.I.@.:.x.R.w.L.n.E H t y i ",
"x E b.*.$.E y p A E H %.r.k.b.k.q.w.| E.Z.I.'.~.P.E.D.} } p p n n T x.=.O.T i p N E Y ;.t.k.b.k.e.>.| ~.b.I.`.W.I.E.Z.| W p p n ",
"M ) ' v P 8 x y N m S ( +.f.@.` K ^ h g h ~ ..~ F S K N x i t h b ) ' v P w x y N k F ( ..>.| ) F ^ h i h ( ..~ K F K N b t i p ",
"P A V s V z c g B J J Q 2.q g v b v b A _ B r 5 j &   e s A <.o.P A b g V z x g v K J Q 2.e c b v v B V ~ 0 6 > s & . e t G :.X.",
"4.$...2.-. .}  . . .s.Y.S.V J.K.2. .} V.R.E.*.A :.&.& 2.!.5.4.1.4.$...:.&.o. . . . .d.Y.S.G J.x.&. .Q S.I.^ F x _ _ $ 2.!.2.6.1.",
"..E M ( s.( Q ( J J &.4.d.G S.C.L 2.S ;.@.E.=.Z  .A 5 7.<.} ..%...( N } s.( Q ( J K &.>.d.G 2.O.g ..g O.@.0.~ Z T g 5 4.-.} O.-.",
"+.K b G :.}  .K D v Q ..V.G x.<. .x.} :.t.j.@._ J Q g e.3.O.W $.+.K M G :. . .J A v Q *.l.L :.K G @.S ( ;.+.~ _ g K c 7.e.O.W O.",
"( H S H S ..K m K H P P :.( G.3.,.5.$.Z.n.G.z.c.O.a.*.t.1.| @.@.) F T F F -.Q A H H P P <.( c.-.P  .$.<.#.:.7.c._ a.-.j.1.} +.+.",
"T +...@.+.P.p.;.K J A K D - &.c.5.4.| r.i.Z.-.-.) D x O.` :.e.E Y +.) O._ j.h.=.S C A J G , &.b.,.5.| :.%.1.$.<._ D c  ...>.t.+.",
"A A x P | S R Z 7 0 r r f Q ` *.~ _ T K - a D 4.P C A c j r v d S v s K 2.d S Z a u e r j Q / -.( ~ K ( < 9 K 6.~ A J B j r m y ",
"n.4.4.z.F.M @.@.' T ` *.0.'.D.h.*.~ -.7.5 l. .( *. .( _ P ~ ;.;.j.x.x.i.V.~ ;.y.y.^ _ ] f.Q.n.h.;.~ *.V.7 7.4.:.j.:...-.*.@.r.>.",
"l.:.:. . .K ;.k.B.' ~ @.y.f.h.c.n.=.' -.r >._ ~ ~ _ ~ S T | F T *.Q J J D D @.k.M.` ~ *.w.g.k.c.n.=.@...a Y.-.` ` *.@.) @.>.` *.",
"x.:._ ( O.K >.m.n.~ ~ #.w.` f.h.n.=.>...g >.~ ` *.~ ..*.:._ F ..-._ J A Q F >.m.M.( ~ #.0.` f.h.b.=.4.E V D...-.w.:.>.h.v.;...>.",
"l..._ _ :.` 0.m.0.x.4.0.h.j.n.h.R.4.c.x.f Y.` &.*.] *.;.+._ ) -.>.Q D V | ` h.m.0.v.e.w.t.h.D.n.R.4.E.C _ ).t.v.b.4.h.n.t.4.>.w.",
"-.` -.:.R.t.;.I.G.E.E.n.W.k.n.G.^.E.E.c.g ].R.h.h.k.k.;.j.h.@.~ ~ Z Q *.n.h.;.N.Z.W.E.n.Q.b.b.j.E.G.`.g -.|.Q.R.R.W.Q.N.R.E.h.*.",
"x Z j = * + 6 6 0 - 8 u j 0 8 7 a 7 % + O # e B m M T S ~ K n w f A x : * + 4 - 4 > 7 u h 8 1 ; 4 4 ; o @ < i n C H ) E O.~ C i ",
"A._.i.8 8 k j j Z 6 Z m ^ E.x.| j | W.w.{ P | Z.p.} E $.4.;.p.i.V.`.i.8 8 j d i j 6 j u S b.=.T j } 7., X.L [ Z.x.E E $.:.#.t.c.",
"E.~.4.v M.R.U i.1.M p.+.W #.j.(.h.b.}.Z.O.x.G.i.I.i.e.~.W.G.U.~.E.E.e.d :.r.h ;.t.v ` I Z ^ =.B...;.e.< ,.C.F.i.G.x.e.!.~.W.E.U.",
"K.!.| ) Z.| y r.' u w.;.I ( w.e.) -.G.i.5.c.U.>.e.i.K.1.C.P.Z.Z.T.!.| K $.S 2 +.` 8 ) ^ d S ) ' S T 7.q ,.x.F.;.w.x.F.5.Z.P.Z.Z.",
"C.K.D *.D.A 3 H ) h t.+.S ..*.) H $.1.x.2.Z.i.<.i.c.i.d.5.I.A.d.C.!.A ( 1.v 3 N ) 0 | Y p Y E C h E ..t X.w.i.<.i.c.C.7.5.F.Z.7.",
"K./.s *.T.W p n F m I.1.) =.@.) T Z.<.| P 1.e.,.-.2.7.H.4.z.A.7.C.7.z ~ 7.W p M Y h 0.' Z ) ) Z M 1.) t X.%.e.<.-.2.7.C.e.z.H.7.",
"&.1.* E ( v u e v 8 v F ~ g h C u K H i M z p M M N } +.-.1.O.}  ._ & K ( M r r m 8 x M C t h m y E b < H x g N M N } $.*.1.-.} ",
"<.} O.<.<.-.L P $.<.E ..7 ..+.>.1.w...;.( v 2 b w 2 e.m c [.7.5.2.} -.-.5.$.G P O.<.P ..7 +.+.9.4.1.+.%.[ z 2 M e 2 q.n c [.7.2.",
"C.!.Z.G.S.G.J.S.J./.J.{.z :.L.M.w.@.%.;.7.+.H 1.$.$._.w L /.C.H.d.!.A.H.S.G.T.G.E./.J.{.z :.L.M.w.@.%.%.2.O.Y %.O.$._.q L /.C.K.",
"5.z.Z.Z.4.z.z.V.[./.F.{.v @.9.9.+.T H x n %.+.#.$.1.~.g <.J.V.<.7.x.Z.F.7.i.C.l.[.^.K.{.c @.9.9.+.T H v n %.| ;.%.1.~.g <.J.d.<.",
"<.i.E.7.<.:.z.4./.K.7.{.H $.w.| +.E N A N $.*.1.+.| F.A <.H.C.<.<.i.U.3.-.2.z.8./.K.6.{.H O.w.| ' T N G N @.-.1.+.| F.N 5.A.H.<.",
"<.G.P.c.Z.Z.<.<.H.V.7.}.S ( x.i.p.p.$.@.+.| $.4.G 1.Z.b [ H.H.H.<.L.P.c.Z.Z.<.<.K.C.7.}.H E Z.e.p.y.%.$.+.| $.1.A 5.Z.b { H.C.H.",
">.h.Q.I.W.G.7.G.c.E.n.Q.u | D.n.b.L.i.-.*.*.:.;.;.S @.c _ a.D.D.2.v.(.I.W.D.3.G.v.R.n.`.0 ` D.n.b.G.7.*.*.*.;.;.:.S @.j _ a.G.Y.",
"0 9 j S Z Y ~ +.*.*.~ ..g K *...K x d 5 h ~ U D F j C 3 d v P M 9 9 j S Z F ( @.*.;.~ ..g F *.` T h g 2 j ~ Q D S j C 7 d v Q B ",
"J J i.z G :.} O.-.$.-.4.K.I.D.V.A.O.I.i...C.,.2.-.S.E.W.x.O.O.T G J i.z G -._ ..$.O.,.1.T.D.D.c.G. .F.i...l.:.2.-.S.E.W.i.$. .P ",
"K  .K.S O.V.| ) @.~ ..1.i.r.0.n.G.M.W.Z...-.O.:.*._ p.>.:.*.[ A H O.F.S O.Z.} } $.R @.>.x.t.w.G.G.I.E.Z.| :...-.*.) j.:.-.-.) D ",
"v G i.A >.1.H H W S E S r.;.y.k.j.j.E.Z.@.r.` 4.@.@.w.E E H N r M H i.C 1.2.H H ( S E H t.9.y.p.j.k.E.Z.+.t...t.@.@.t.E E J N t ",
"M S 1.H <.i.h H <.( E } x.9.y.=.;.+.i.U.@.:.j.W.0.N.L.E L r y p x H 1.G -.r.h Y :.( T [ c.=.y.=.;.@.i.I.@.:.x.E.w.M.L.E H u y y ",
"x T x.@.| T y p M T H $.>.y.k.t.1.>.| U.i.I.).E.G.I.b.} E p p n x T x.' ..T y p n E H *.4.y.j.w.1.>.| U.c.L.).E.G.I.Z.( W i p n ",
"H @.;.F } u n h Y N ~ *.;.n.>.*.` =.m v N @.4.*.| ~ T T T z u n H $.;.H ( i n h I I ( *.;.k.>.;.) =.m m m @.>.-.| ~ T T P x i n "
};
