/* XPM */
static char *acad838b595347bd889c2a208c1f855au2QASfNLR5khgy06[] = {
/* columns rows colors chars-per-pixel */
"64 64 137 2 ",
"   c #9D9C9A",
".  c #A19F9C",
"X  c #A2A19E",
"o  c #A6A5A2",
"O  c #A8A7A5",
"+  c #AAA9A6",
"@  c #ADACAB",
"#  c #B0AFAD",
"$  c #B1B1AE",
"%  c #B1AFB0",
"&  c #B5B4B3",
"*  c #B8B7B5",
"=  c #B9B9B6",
"-  c #B7B7B9",
";  c #B9B7B8",
":  c #BCBCBB",
">  c #C0BFBE",
",  c #C1C1BF",
"<  c #BEBEC0",
"1  c #C1BFC0",
"2  c #C5C4C4",
"3  c #C8C6C6",
"4  c #C7C8C3",
"5  c #CACBC6",
"6  c #CBCAC6",
"7  c #C9C9C6",
"8  c #CDC9C6",
"9  c #C9C9C7",
"0  c #C6C6C8",
"q  c #C7C7C9",
"w  c #C6C6C8",
"e  c #C9C7C8",
"r  c #C9C7C8",
"t  c #C7C9C8",
"y  c #C7C8CA",
"u  c #C8C8C8",
"i  c gray79",
"p  c #CAC8C9",
"a  c #CACAC8",
"s  c #CBCAC8",
"d  c #CBCBC9",
"f  c #C9C9CB",
"g  c #CBC9CA",
"h  c #CACACA",
"j  c #CBCBCB",
"k  c #CCCBC9",
"l  c #CCCACB",
"z  c #CBCDCA",
"x  c #CDCCC8",
"c  c #CCCDC8",
"v  c #CECDC9",
"b  c #CDCEC9",
"n  c #CCCCCA",
"m  c #CDCCCA",
"M  c #CDCDCB",
"N  c #CECDCB",
"B  c #CCCECB",
"V  c #CFCECA",
"C  c #CACACC",
"Z  c #CBCBCD",
"A  c #CDCBCC",
"S  c gray80",
"D  c #CDCDCD",
"F  c #CECCCD",
"G  c #CDCFCC",
"H  c #CCCECD",
"J  c #CECECC",
"K  c #CFCECC",
"L  c #CFCFCD",
"P  c #CCCCCE",
"I  c #CDCDCF",
"U  c #CFCDCE",
"Y  c #CDCFCE",
"T  c #CECECE",
"R  c gray81",
"E  c #CCCCCB",
"W  c #D0CCCB",
"Q  c #D0CFCB",
"!  c #D0CFCD",
"~  c #D0CECF",
"^  c #D0CECE",
"/  c #CED0CE",
"(  c #D2D1CD",
")  c #D0D0CE",
"_  c #D1D0CE",
"`  c #D1D1CF",
"'  c #D2D1CF",
"]  c #D3D2CE",
"[  c #D4D3CF",
"{  c #D1D1CE",
"}  c #CECED0",
"|  c #CFCFD1",
" . c #CECED0",
".. c #D1CFD0",
"X. c #D1CFD0",
"o. c #CFD0D2",
"O. c #D0D0D0",
"+. c gray82",
"@. c #D2D0D1",
"#. c #D2D2D0",
"$. c #D3D2D0",
"%. c #D3D3D1",
"&. c #D0D0D2",
"*. c #D1D1D3",
"=. c #D3D1D2",
"-. c #D2D2D2",
";. c LightGray",
":. c #D4D3D1",
">. c #D4D2D3",
",. c #D5D4D0",
"<. c #D4D4D2",
"1. c #D5D4D2",
"2. c #D6D5D3",
"3. c #D2D2D4",
"4. c #D3D3D5",
"5. c gray83",
"6. c #D5D5D5",
"7. c #D6D4D5",
"8. c #D6D6D4",
"9. c #D7D6D4",
"0. c #D7D7D5",
"q. c #D4D4D6",
"w. c #D5D5D7",
"e. c gray84",
"r. c #D7D7D7",
"t. c #D3D2D2",
"y. c #D8D7D5",
"u. c #D9D8D6",
"i. c #D9D8D6",
"p. c #D6D6D8",
"a. c #D7D7D9",
"s. c #DAD7D8",
"d. c #D8D8D8",
"f. c #D8D8DA",
"g. c #DADAD9",
"h. c #E0DFDD",
"j. c #E0E0DE",
/* pixels */
"i S S S X.i i i w z S i S #.f | e g S S :.: & : e ` ~ ~ #.#.3.#.#.q w ` S | S S S i f S > w i S #.6.6.6.6.p.3.p.#.6.<.i : #.6.5.",
"i i i i i i i w i S ~ S S S i S i w e w i > 2 Q g i 4 w e S i A i t : i i 6 i e 4 w i f : e z z i i i w w i | ~ #.S ` M : 6 i i ",
"z z S 6 g g f 2 2 :.M 6 6 2 i S i 2 i 6 ~ 2 W :.:.0.<.:.:.X.` ( :.4 : Q g i i w 6 6 M M , b ] / S ` ~ #.` Q ~ [ #.6.6.= > #.S A ",
"= * $ = @ o o @ o   X $ : = $ & & * % @ @     O O @ + + + o o X X . $ $ * < : = $ = = & 2 * * $ @ * > & * * $ # @ & o + = * : & ",
"` S & ` #.#.3.6.6.S i 6.6.d.w i P t q q w w : - & : > : $ 8 M S ~ ` #.i f S X.6., b S ` | #.S M 6 2 M 2 8 2 * = 2 i i M g i S S ",
"S M 2 ~ #.3.#.o.S #.~ S / / 2 2 f f i q 2 e f A S S g g > S S #.` / S ~ S S S i , 2 g g i #.` u.h.6.M Q / w > Q M i i e e S i ` ",
"` / ~ X.S M S S S i S M i i 6 2 q i f i M / A X.S S X.w 4 ` ` ` S S ` g ~ [ ~ ` 6 e 6 4 w M S i , 4 ` ~ [ ` 8 [ ( [ <.:.<.[ ` , ",
"& = > = : 2 i 2 & * = * & & = * : : < < 2 * & : : < 1 2 2 = = : : * & * & $ & & = @ @ : , $ * $ + @ & = * X   + $ @ # # + O O X ",
"e S / #.#.5.S / w #.#.#.#.#.p.d.6.3.| | S < i #.3.#.#.<./ i S S S < * / S ~ S S S S 6.#.5 5 w #.6.` ( M e 2 1 2 # = = : 2 w w M ",
"o.S S M S S S M t P S M S | S | | S | i S 2 i X.| X.#.S S S 6.#.5.2 2 S i i i 6 z M #.S * 4 M #.#.#.` ` S 2 S X.: V S M M / ` S ",
"S ` ~ M S :.<.` i / S M | #.6.#.A g e i A X.A 2 = e S ~ ~ ` i S i 6 4 6 i e e i z i i ` 4 / ( ( S ` / M X.S #.#.4 b 6 6 A f g S ",
": : & > 2 , = * = : , : = * # @ % & % % = 1 1 & & : > 2 w , 2 : = > > : 2 = * > 2 > = $ = @ + & : = & = * * $ $ = > : : 2 = = > ",
"` 6 * z M w w i i M z i | 2 : f | | f q.3.#.:.:.6.5.1 2 <.#.#.#.#.#.6.#.X.5.2 , w z | 6 i 6 b 8 / M = : i z w e i / 5.#.| 3.2 , ",
"( M : z M / i 6 i M S S #.t < | #.X.| | | | #.~ ` #.1 1 i i f i w t i M A X.M w i S #.S S / ] ] M M , w M z g g i 6 i P S S M 2 ",
"b 5 4 M 5 i M z 5 4 6 6 2 2 6 w e q 2 2 M M M ` 6.6 # g S M 2 6 z M g 4 i Q g e M g g 6 w 5 / ( ( ( 4 b 6 4 6 8 / / i i i / 6 6 ",
"+ $ = @ & $ @ $ & * $ + @ $ * $ & & & & & & @ # @ o * = = = $ = : : = * & * * = = : : w > = $ @ @ @ $ : 2 6 4 2 , & & * & & * = ",
"M ` / S S S #.| i <.#.S 6.6.S | | | #.p.: = 2 i S ` M S S #.` M 2 2 #.S #.M S ~ M M S i 2 6 ` g b 6 6 i S / M S 2 2 S o.#.i S #.",
"g e i i i i i w 8 M S o.i M i z q w w i : 6 ~ i g 8 w 6 i i M M 8 : f i i w i e 6 2 w 2 & e M M g M M M 6 6 6 4 4 2 4 6 i w q i ",
"M M Q 6 i i 6 2 , ` S 6 i w i S i 4 i g e M #.` ,.,.` [ ~ ( b [ 2 : S g w 6 w 2 6 2 2 6 [ M g S ` ( M ` ` Q Q 6 , 2 Q 6 i i w e ",
"= = # = @ o o + o   X $ : : $ @ & $ + @     O o @ X @ @ o X X X X & @ * : : : # * : , , : , w e , , & @ # O o @ & $ $ * : : = # ",
"#.M & / ` #.5.6.#.S z <.6.a.2 g S f e e 3 2 - & 1 2 = & M S | #.#.#.P S S / #.2 z #.#.f.0.#.#.S i ` , = Q i i w 6 ` i g S ` ` > ",
"S M 2 ` #.#.#.o./ o.S | X.S 2 2 f e e q 2 e A f S S i > ` | S o.S P / S S M S < w i t 6 z 6 i i t 6 2 , S i S S i M S M S S M : ",
"#.` / ` / z M S i 6 S g g S i 2 i f q f X.f S A A A 4 4 ` ` #.S ~ ~ M ~ ` M ( 6 2 w w 6 Q 8 6 e i i M M M 6 w 6 ` ` b Q ` M ~ 6 ",
"& = , = : 2 4 , $ * = * & & = - : : < 2 * * > : > > 2 2 : = : : & & & & $ & $ * # * , & O   @ & @ & & * & 2 w i > * * & & & $ = ",
"w S S #.` #.~ | q <.#.#.#.#.p.f.p.P P S : M #.#.o.o.#.| i S S i 2 2 #.S #.S | | #.` 6.M = M ` X.#.#.3.#.6.#.#.6., : #.S X.A S S ",
"` / #.#.~ M #.#.w S | S z o.#.#.| | P S 2 ( #.o.#.5.S S S 6.6.6.` M ~ ~ #.X.g M S z i i , 6 S A S S S S S | S ` 2 4 / S :.X.X.S ",
"4 4 i 6 M M * @ , i S S i f M M S f S X.2 : 2 i : , 0.:.0.8 [ M e M :.~ 4 , i M #.] ` / 4 M S S S #.#.#.#.#.#.:.6 i ` ` 2 2 A A ",
"$ $ + X o + # & , > 2 w 2 = $ @ & & % & = & o $ + X @ @ @ # @ @ & * * - @ & : = @ $ $ & 2 2 2 : : = * $ @ & $ + & : = & @ * : - ",
":.<.e : [ ` 6.6.#.#.X.3.3.3.` : S S | #.f #.X.X.6.:.M $ : :.S S | | } | ~ ` #.i 2 w 6 | i w | 2 2 ~ ` w 2 6 i i S #.~ M ~ ` > ~ ",
"A i 2 : / i i i i i f A f i i , i i e w w q q e e e S 6 g S i M f f e i i e i : 6 M i i w w f 2 2 M g M 4 e 6 i i e i 8 6 6 , g ",
"~ ` 6 8 :.:.#.X.#.S i A | S | o.M i q A M M g i i g 9.[ M g 6 ~ | X.:.~ g ` 5.1 2 M M ` ` S #.#.M #.` ` ~ Q > 2 ~ Q 4 b [ [ <.<.",
"O $ & & # # + & & + & & & * - * = : - # @ o @ & & + @ + # * $ @ & & * = + & - - & : & = = = = : & * : * = * O . # # @ + + + @ @ ",
"d.6.#.#.#.6 g + : 2 i o.w i 3.p.6.3.p.f 2 o.| 3.p.f S A 6.X.#.i 2 w * : 2 : 2 e 6 w , , = , e e w , , 2 2 , / #.& # Q g e 2 2 > ",
"z f | #.| i ` * 2 S i P S S 3.| } o.3.} w P } | | | #.X.S S f S / #.2 , 6 w i 2 w w 2 4 , , i 2 2 , 2 2 2 6 4 | 6 , g ~ ` M g ~ ",
"#.3.#.S ` ` #.` #.6.5.#.6.d.g.d.6.f.g.X.i 5.5.#.| #.3.#.#.#.S o.M S w e ~ e 2 e o.S / S 2 M ~ ~ ~ g ~ Q / b ` 9.:.<.s.:.[ ~ S 0.",
": : = : = & = > = : < : = = @ * - & @ + - : : < w < : - - & & & $ $ = , > & @ * , 2 w : = : : 2 4 4 > , : : = $ : & $ * + & ; : ",
"e & & e 2 w w S i 4 P i i w + = 2 t 2 i | | } q i S 2 < q q i t i S #.S :.2 2 X.2 e ` ` #.:.Q > S :.#.S S #.P w S q 2 q S ~ e : ",
"#.: | 3.#.:.#.#.#.o.| #.<.6 M <.#.3.6.3.| #.| P i S w w | | | #.S | #.S ~ 2 : S w 6 6 M X.M ~ : w i i i q i / / S | #.#.#.X.2 4 ",
"6 ~ <.0.:.:.:.a.g.<.` #.9.( b 9.6.:.:.5.3.3.| f S z 6 S 3.f #.S ~ M ` ` / 6 S <.:.~ X.5.0.0.:.g ~ / Q 6 i M ` <.6.#.6.#.6 , 6 M ",
"+ # & $ : > - $ $ = , : * $ * # & * * - - @ 2 w 2 2 2 < = % & $ $ $ & & & @ o & : = * # $ # + * & : * $ , : > = - : < : + o = , ",
"( 6 e e S X.A f : , = 2 2 : 2 , w w w g w 2 A e f f f | | q f P M 6 g : * 2 q 2 = $ & : 2 2 e g w 6 S i e 2 2 > = 2 i : , i 4 i ",
"b w 6 ~ S S S #.2 , 2 2 2 2 4 2 2 e q w 4 , A f f z i S P q 0 4 i : 6 6 A S S P w = 8 M S A e 2 M M S i f g A ~ : w S 6 6 i q i ",
"M ` ` <.[ [ S e z S 5.#.S ` [ M M <.` A M <.3.X.S M ~ ` o.S / o.[ b ( ` o./ Q ~ / 2 ` / X.X.~ :.` [ ` [ :.6.:.6.#.:.#.6.[ [ 0.` ",
"& & $ $ @ @ $ $ & * * = : * & * @ o O @ X   o % = & $ $ & & @ o + O X @ @ * * $ & * = - & # O X $ * = * * & # @ = # + @ @ + O X ",
"( : & 2 : , : 4 2 6 2 8 M 6 & S e w f | / , : P #.6.2 w t 4 2 2 i 8 > & 2 o.6.w 2 2 3 1 < : : & @ o + $ & $ = : 2 , : < , , = 2 ",
"b , : S M M S 6 M M M M M g > S #.5.3.X.` #.#./ ~ ~ : w i #.<.<.o.#.#.i 2 S ~ i q i g A f e e A M ` , ( ~ ~ X.:.S 6.p.X.` #.i w ",
"9.( M #.#.5.#.6.` / / #.<.<.X.X.#.| 5.A #.6.6.d.h.g.S e X.X.S S / #.` M w :.S g f = 1 f g Q A g e 6 b b g i i t 2 w e e f S ~ #.",
"= = = : : = = 2 : : w w : = - : : & @ = = * = O X + : * : w 2 , & + + + X . & % : = : 1 : : - * & & : 6 i i i i w 6 1 : 1 = w > ",
"4 w 4 i i i M i * 2 o.2 2 w 4 z i i #.S > 2 , 2 : > 2 ` f w w w r X.p r 1 1 A } X.S A A > g } 5.5.p.X.3.3.#.#.6.q 4 S S #.#.3.f ",
"z t 6 z S #.S ` : 2 S S 6 4 4 i P ` ~ e , Q M g ~ ` #.g z i 6 w 1 r r p A r 1 r e A A A > r e A S S S S A A } f w 2 A A i i e i ",
"` ` S S S S ~ #.5 / #.S ` S S #.3.o.: 6 M ` ` ` ~ Q Q M ` g | A 3 g 1 > p A l l X.A e X.~ e l A e 8 6 i S X.S #.i M i f 6 w e e ",
"@ $ & & $ @ # @ : @ & & $ # & * : & o @ > : = & : : : = : : - % @ # + . & 1 : & - - : > > 1 1 & & $ & : : = - & = = = = : 2 1 w ",
"6 6 i X.i i q i S i i t 2 z q S , : 6 i i i 2 8 6 g 2 6 S | f } X.X.p.5.<.#.2 g X.S X.} ~ g A X.i q M 2 M M M ~ P i S S 3.p.f A ",
"6 2 t z i t f i i i i 6 6 6 w z M i S e 6 i 5 g M M 4 6 P f y } } f e A i g 2 2 g e 2 1 3 e l A S i e 2 > 2 w w 2 2 2 : 2 2 1 : ",
"/ z S u.#.S ~ #.#.S M ` ` M 8 <.#.` ~ g M #.` M ( ( ( ( #.~ S #.5.0.:.5.0.g.8 > :.M ~ g g ~ ~ 8 e ` 6 2 g 6 e 6 , i g 6 e 6 e e ",
"O O X o O & = = & * $ o o + X X o @ = - & & & & * * = = : = = = % O O + $ + + @ $ # O @ # # & % @ O @ @ @ $ $ & & @ & $ @ $ @ # ",
"f S P : 2 S M ` * 2 S t i | | 2 < i i 2 , w 2 w 6 w e e 2 : 2 6 > ; : g > e 2 ~ > g g 3 > e 2 ~ A S l 2 f S i 2 i f e l A A A 2 ",
"#.| #.#.S S z S , 6 #.6.#.#.S o.#.S w w < 6 A e 6 6 e i M i i 6 1 3 > X.X.:.X.~ ~ ^ :.~ > Q Q 8 ` ~ ~ X.#.o.#.S 2 i l X.A f i i ",
"5.#.o.S | #.<.<.#.3.o.S o.3.d.d.S ~ #.S i z S A 4 2 8 M S S S S ~ 6 e ~ g ~ X.~ s.s.7.7.g :.# X . > s.X.6.#.3.#.f 5.X.X.Q M ` ~ ",
": 2 : 2 2 w : = = : > < : : : @ @ & & & & = 2 1 $ @ = 2 2 w 2 < , & * : : 2 > & & % # & = # # > & & # % @ - : * - : : ; : & : : ",
"i 2 & 6 i > 2 w q f f t q : & 2 i w w e S S A | S #.#.< 2 #.o.#.M i S #.~ S g , * > > 1 1 X.:.~ 8 Q > * f = - 1 : = 2 2 w , , > ",
"| S : i M g i i i i i S #.2 < P A #.~ S #.| | #.o.S #.w : 6 i S 6 6 A g S S [ M 2 ` X.#.~ X.X.A ^ 2.~ 8 #.#.A w 4 6 w w 2 M , : ",
"#.#.6 #.:.X.X.#.` S / ` ` z S #.~ [ ` ` ~ #.#.5.u.u.6.* 6 ` ~ g i A ~ A M ~ X.:.| | 3.| 3.3.3.| X.5.~ > 6 i f S P q 6 M #.#.6 8 ",
"@ $ = @ - & % # & $ $ + o @ @ @ $ $ $ $ # & * * & = + $ , , , & : w 1 : * * : - : i f e q q e e f 1 > * @ : w q : @ & 2 i = : 2 "
};
